<?xml version="1.0" encoding="UTF-8"?>
<svg width="3644px" height="1918px" viewBox="0 0 3644 1918" version="1.1" xmlns="http://www.w3.org/2000/svg" xmlns:xlink="http://www.w3.org/1999/xlink">
    <!-- Generator: Sketch 42 (36781) - http://www.bohemiancoding.com/sketch -->
    <title>Group 10</title>
    <desc>Created with Sketch.</desc>
    <defs></defs>
    <g id="Page-1" stroke="none" stroke-width="1" fill="none" fill-rule="evenodd">
        <g id="Group-10">
            <rect id="Rectangle-3" fill="#FFFFFF" x="0" y="0" width="3644" height="1918"></rect>
            <g id="Group-6" transform="translate(214.000000, 479.000000)">
                <g id="Group-5">
                    <rect id="Rectangle" fill="#0075C9" x="0" y="0" width="566" height="188" rx="94"></rect>
                    <path d="M72.49,93.11 C73.3660044,94.1540052 73.804,95.4919918 73.804,97.124 C73.804,99.3080109 73.006008,100.999994 71.41,102.2 C69.813992,103.400006 67.4920152,104 64.444,104 L52.924,104 L52.924,78.8 L63.76,78.8 C66.5200138,78.8 68.6739923,79.3579944 70.222,80.474 C71.7700077,81.5900056 72.544,83.1919896 72.544,85.28 C72.544,86.6480068 72.2020034,87.8119952 71.518,88.772 C70.8339966,89.7320048 69.8680062,90.4519976 68.62,90.932 C70.3240085,91.340002 71.6139956,92.0659948 72.49,93.11 Z M56.488,89.888 L63.508,89.888 C65.2600088,89.888 66.5979954,89.5400035 67.522,88.844 C68.4460046,88.1479965 68.908,87.1280067 68.908,85.784 C68.908,84.4399933 68.4400047,83.4140035 67.504,82.706 C66.5679953,81.9979965 65.2360086,81.644 63.508,81.644 L56.488,81.644 L56.488,89.888 Z M70.168,96.836 C70.168,95.3959928 69.6820049,94.3340034 68.71,93.65 C67.7379951,92.9659966 66.2920096,92.624 64.372,92.624 L56.488,92.624 L56.488,101.156 L64.372,101.156 C68.2360193,101.156 70.168,99.7160144 70.168,96.836 Z M82.354,102.956 C80.8299924,102.115996 79.6360043,100.958007 78.772,99.482 C77.9079957,98.0059926 77.476,96.3320094 77.476,94.46 C77.476,92.5879906 77.9079957,90.9140074 78.772,89.438 C79.6360043,87.9619926 80.8299924,86.8100041 82.354,85.982 C83.8780076,85.1539959 85.6119903,84.74 87.556,84.74 C89.2840086,84.74 90.8259932,85.0879965 92.182,85.784 C93.5380068,86.4800035 94.5879963,87.4879934 95.332,88.808 L92.704,90.5 C92.103997,89.5879954 91.3600044,88.9040023 90.472,88.448 C89.5839956,87.9919977 88.6000054,87.764 87.52,87.764 C86.2719938,87.764 85.150005,88.0399972 84.154,88.592 C83.157995,89.1440028 82.3780028,89.9299949 81.814,90.95 C81.2499972,91.9700051 80.968,93.1399934 80.968,94.46 C80.968,95.8040067 81.2499972,96.9859949 81.814,98.006 C82.3780028,99.0260051 83.157995,99.8119972 84.154,100.364 C85.150005,100.916003 86.2719938,101.192 87.52,101.192 C88.6000054,101.192 89.5839956,100.964002 90.472,100.508 C91.3600044,100.051998 92.103997,99.3680046 92.704,98.456 L95.332,100.112 C94.5879963,101.432007 93.5380068,102.445996 92.182,103.154 C90.8259932,103.862004 89.2840086,104.216 87.556,104.216 C85.6119903,104.216 83.8780076,103.796004 82.354,102.956 Z M113.764,87.944 L106.78,87.944 L106.78,104 L103.324,104 L103.324,87.944 L96.34,87.944 L96.34,84.92 L113.764,84.92 L113.764,87.944 Z M132.376,85.964 C133.840007,86.7800041 134.985996,87.9199927 135.814,89.384 C136.642004,90.8480073 137.056,92.5399904 137.056,94.46 C137.056,96.3800096 136.642004,98.0779926 135.814,99.554 C134.985996,101.030007 133.840007,102.175996 132.376,102.992 C130.911993,103.808004 129.256009,104.216 127.408,104.216 C126.039993,104.216 124.786006,103.952003 123.646,103.424 C122.505994,102.895997 121.540004,102.128005 120.748,101.12 L120.748,110.984 L117.292,110.984 L117.292,84.92 L120.604,84.92 L120.604,87.944 C121.372004,86.8879947 122.343994,86.0900027 123.52,85.55 C124.696006,85.0099973 125.991993,84.74 127.408,84.74 C129.256009,84.74 130.911993,85.1479959 132.376,85.964 Z M130.414,100.346 C131.386005,99.7819972 132.153997,98.9900051 132.718,97.97 C133.282003,96.9499949 133.564,95.7800066 133.564,94.46 C133.564,93.1399934 133.282003,91.9700051 132.718,90.95 C132.153997,89.9299949 131.386005,89.1440028 130.414,88.592 C129.441995,88.0399972 128.344006,87.764 127.12,87.764 C125.919994,87.764 124.834005,88.0459972 123.862,88.61 C122.889995,89.1740028 122.122003,89.959995 121.558,90.968 C120.993997,91.976005 120.712,93.1399934 120.712,94.46 C120.712,95.7800066 120.987997,96.9499949 121.54,97.97 C122.092003,98.9900051 122.859995,99.7819972 123.844,100.346 C124.828005,100.910003 125.919994,101.192 127.12,101.192 C128.344006,101.192 129.441995,100.910003 130.414,100.346 Z M145.12,102.956 C143.607992,102.115996 142.426004,100.958007 141.574,99.482 C140.721996,98.0059926 140.296,96.3320094 140.296,94.46 C140.296,92.5879906 140.721996,90.9140074 141.574,89.438 C142.426004,87.9619926 143.607992,86.8100041 145.12,85.982 C146.632008,85.1539959 148.335991,84.74 150.232,84.74 C152.128009,84.74 153.825992,85.1539959 155.326,85.982 C156.826008,86.8100041 158.001996,87.9619926 158.854,89.438 C159.706004,90.9140074 160.132,92.5879906 160.132,94.46 C160.132,96.3320094 159.706004,98.0059926 158.854,99.482 C158.001996,100.958007 156.826008,102.115996 155.326,102.956 C153.825992,103.796004 152.128009,104.216 150.232,104.216 C148.335991,104.216 146.632008,103.796004 145.12,102.956 Z M153.526,100.346 C154.498005,99.7819972 155.259997,98.9900051 155.812,97.97 C156.364003,96.9499949 156.64,95.7800066 156.64,94.46 C156.64,93.1399934 156.364003,91.9700051 155.812,90.95 C155.259997,89.9299949 154.498005,89.1440028 153.526,88.592 C152.553995,88.0399972 151.456006,87.764 150.232,87.764 C149.007994,87.764 147.910005,88.0399972 146.938,88.592 C145.965995,89.1440028 145.198003,89.9299949 144.634,90.95 C144.069997,91.9700051 143.788,93.1399934 143.788,94.46 C143.788,95.7800066 144.069997,96.9499949 144.634,97.97 C145.198003,98.9900051 145.965995,99.7819972 146.938,100.346 C147.910005,100.910003 149.007994,101.192 150.232,101.192 C151.456006,101.192 152.553995,100.910003 153.526,100.346 Z M182.308,95.612 L166.828,95.612 C167.044001,97.2920084 167.781994,98.6419949 169.042,99.662 C170.302006,100.682005 171.867991,101.192 173.74,101.192 C176.020011,101.192 177.855993,100.424008 179.248,98.888 L181.156,101.12 C180.291996,102.128005 179.218006,102.895997 177.934,103.424 C176.649994,103.952003 175.216008,104.216 173.632,104.216 C171.61599,104.216 169.828008,103.802004 168.268,102.974 C166.707992,102.145996 165.502004,100.988007 164.65,99.5 C163.797996,98.0119926 163.372,96.3320094 163.372,94.46 C163.372,92.6119908 163.785996,90.9440074 164.614,89.456 C165.442004,87.9679926 166.581993,86.8100041 168.034,85.982 C169.486007,85.1539959 171.123991,84.74 172.948,84.74 C174.772009,84.74 176.397993,85.1539959 177.826,85.982 C179.254007,86.8100041 180.369996,87.9679926 181.174,89.456 C181.978004,90.9440074 182.38,92.6479904 182.38,94.568 C182.38,94.8320013 182.356,95.1799978 182.308,95.612 Z M168.79,89.168 C167.673994,90.176005 167.020001,91.4959918 166.828,93.128 L179.068,93.128 C178.875999,91.519992 178.222006,90.2060051 177.106,89.186 C175.989994,88.1659949 174.604008,87.656 172.948,87.656 C171.291992,87.656 169.906006,88.159995 168.79,89.168 Z M187.744,84.92 L191.2,84.92 L191.2,93.02 L202.072,93.02 L202.072,84.92 L205.528,84.92 L205.528,104 L202.072,104 L202.072,96.008 L191.2,96.008 L191.2,104 L187.744,104 L187.744,84.92 Z M212.26,84.92 L215.716,84.92 L215.716,93.02 L226.588,93.02 L226.588,84.92 L230.044,84.92 L230.044,104 L226.588,104 L226.588,96.008 L215.716,96.008 L215.716,104 L212.26,104 L212.26,84.92 Z M250.888,93.056 C252.160006,94.1360054 252.796,95.6599902 252.796,97.628 C252.796,99.6920103 252.106007,101.281994 250.726,102.398 C249.345993,103.514006 247.372013,104.06 244.804,104.036 L236.776,104 L236.776,84.92 L240.232,84.92 L240.232,91.364 L245.38,91.4 C247.780012,91.4240001 249.615994,91.9759946 250.888,93.056 Z M255.64,84.92 L259.096,84.92 L259.096,104 L255.64,104 L255.64,84.92 Z M248.098,100.472 C248.902004,99.8239968 249.304,98.8640064 249.304,97.592 C249.304,96.3439938 248.908004,95.4320029 248.116,94.856 C247.323996,94.2799971 246.136008,93.9800001 244.552,93.956 L240.232,93.884 L240.232,101.372 L244.552,101.408 C246.112008,101.432 247.293996,101.120003 248.098,100.472 Z M283,95.612 L267.52,95.612 C267.736001,97.2920084 268.473994,98.6419949 269.734,99.662 C270.994006,100.682005 272.559991,101.192 274.432,101.192 C276.712011,101.192 278.547993,100.424008 279.94,98.888 L281.848,101.12 C280.983996,102.128005 279.910006,102.895997 278.626,103.424 C277.341994,103.952003 275.908008,104.216 274.324,104.216 C272.30799,104.216 270.520008,103.802004 268.96,102.974 C267.399992,102.145996 266.194004,100.988007 265.342,99.5 C264.489996,98.0119926 264.064,96.3320094 264.064,94.46 C264.064,92.6119908 264.477996,90.9440074 265.306,89.456 C266.134004,87.9679926 267.273993,86.8100041 268.726,85.982 C270.178007,85.1539959 271.815991,84.74 273.64,84.74 C275.464009,84.74 277.089993,85.1539959 278.518,85.982 C279.946007,86.8100041 281.061996,87.9679926 281.866,89.456 C282.670004,90.9440074 283.072,92.6479904 283.072,94.568 C283.072,94.8320013 283.048,95.1799978 283,95.612 Z M269.482,89.168 C268.365994,90.176005 267.712001,91.4959918 267.52,93.128 L279.76,93.128 C279.567999,91.519992 278.914006,90.2060051 277.798,89.186 C276.681994,88.1659949 275.296008,87.656 273.64,87.656 C271.983992,87.656 270.598006,88.159995 269.482,89.168 Z M312.592,86.756 C313.984007,87.548004 315.069996,88.645993 315.85,90.05 C316.630004,91.454007 317.02,93.055991 317.02,94.856 C317.02,96.7040092 316.606004,98.3419929 315.778,99.77 C314.949996,101.198007 313.786007,102.307996 312.286,103.1 C310.785993,103.892004 309.07601,104.288 307.156,104.288 C303.915984,104.288 301.414009,103.178011 299.65,100.958 C297.885991,98.7379889 297.004,95.6120202 297.004,91.58 C297.004,87.6679804 297.807992,84.6020111 299.416,82.382 C301.024008,80.1619889 303.483983,78.6920036 306.796,77.972 L315.508,76.028 L316.012,79.196 L307.984,80.924 C305.487988,81.4760028 303.628006,82.4119934 302.404,83.732 C301.179994,85.0520066 300.484001,86.9479876 300.316,89.42 C301.132004,88.1959939 302.187994,87.2480034 303.484,86.576 C304.780006,85.9039966 306.231992,85.568 307.84,85.568 C309.616009,85.568 311.199993,85.963996 312.592,86.756 Z M310.486,100.58 C311.434005,100.027997 312.171997,99.2660049 312.7,98.294 C313.228003,97.3219951 313.492,96.2120062 313.492,94.964 C313.492,93.0679905 312.916006,91.5440058 311.764,90.392 C310.611994,89.2399942 309.100009,88.664 307.228,88.664 C305.355991,88.664 303.838006,89.2399942 302.674,90.392 C301.509994,91.5440058 300.928,93.0679905 300.928,94.964 C300.928,96.2120062 301.197997,97.3219951 301.738,98.294 C302.278003,99.2660049 303.027995,100.027997 303.988,100.58 C304.948005,101.132003 306.027994,101.408 307.228,101.408 C308.452006,101.408 309.537995,101.132003 310.486,100.58 Z M321.952,84.92 L325.408,84.92 L325.408,98.816 L337.108,84.92 L340.24,84.92 L340.24,104 L336.784,104 L336.784,90.104 L325.12,104 L321.952,104 L321.952,84.92 Z M361.408,86.756 C362.800007,87.548004 363.885996,88.645993 364.666,90.05 C365.446004,91.454007 365.836,93.055991 365.836,94.856 C365.836,96.7040092 365.422004,98.3419929 364.594,99.77 C363.765996,101.198007 362.602007,102.307996 361.102,103.1 C359.601992,103.892004 357.89201,104.288 355.972,104.288 C352.731984,104.288 350.230009,103.178011 348.466,100.958 C346.701991,98.7379889 345.82,95.6120202 345.82,91.58 C345.82,87.6679804 346.623992,84.6020111 348.232,82.382 C349.840008,80.1619889 352.299983,78.6920036 355.612,77.972 L364.324,76.028 L364.828,79.196 L356.8,80.924 C354.303988,81.4760028 352.444006,82.4119934 351.22,83.732 C349.995994,85.0520066 349.300001,86.9479876 349.132,89.42 C349.948004,88.1959939 351.003994,87.2480034 352.3,86.576 C353.596006,85.9039966 355.047992,85.568 356.656,85.568 C358.432009,85.568 360.015993,85.963996 361.408,86.756 Z M359.302,100.58 C360.250005,100.027997 360.987997,99.2660049 361.516,98.294 C362.044003,97.3219951 362.308,96.2120062 362.308,94.964 C362.308,93.0679905 361.732006,91.5440058 360.58,90.392 C359.427994,89.2399942 357.916009,88.664 356.044,88.664 C354.171991,88.664 352.654006,89.2399942 351.49,90.392 C350.325994,91.5440058 349.744,93.0679905 349.744,94.964 C349.744,96.2120062 350.013997,97.3219951 350.554,98.294 C351.094003,99.2660049 351.843995,100.027997 352.804,100.58 C353.764005,101.132003 354.843994,101.408 356.044,101.408 C357.268006,101.408 358.353995,101.132003 359.302,100.58 Z M387.004,84.92 L387.004,104 L383.548,104 L383.548,87.944 L375.34,87.944 L375.124,92.192 C375.003999,94.7600128 374.776002,96.9019914 374.44,98.618 C374.103998,100.334009 373.552004,101.707995 372.784,102.74 C372.015996,103.772005 370.948007,104.288 369.58,104.288 C368.955997,104.288 368.248004,104.180001 367.456,103.964 L367.672,101.048 C367.984002,101.12 368.271999,101.156 368.536,101.156 C369.496005,101.156 370.215998,100.736004 370.696,99.896 C371.176002,99.0559958 371.487999,98.0600058 371.632,96.908 C371.776001,95.7559942 371.907999,94.1120107 372.028,91.976 L372.352,84.92 L387.004,84.92 Z M393.7,84.92 L397.156,84.92 L397.156,98.816 L408.856,84.92 L411.988,84.92 L411.988,104 L408.532,104 L408.532,90.104 L396.868,104 L393.7,104 L393.7,84.92 Z M421.744,102.956 C420.231992,102.115996 419.050004,100.958007 418.198,99.482 C417.345996,98.0059926 416.92,96.3320094 416.92,94.46 C416.92,92.5879906 417.345996,90.9140074 418.198,89.438 C419.050004,87.9619926 420.231992,86.8100041 421.744,85.982 C423.256008,85.1539959 424.959991,84.74 426.856,84.74 C428.752009,84.74 430.449992,85.1539959 431.95,85.982 C433.450007,86.8100041 434.625996,87.9619926 435.478,89.438 C436.330004,90.9140074 436.756,92.5879906 436.756,94.46 C436.756,96.3320094 436.330004,98.0059926 435.478,99.482 C434.625996,100.958007 433.450007,102.115996 431.95,102.956 C430.449992,103.796004 428.752009,104.216 426.856,104.216 C424.959991,104.216 423.256008,103.796004 421.744,102.956 Z M430.15,100.346 C431.122005,99.7819972 431.883997,98.9900051 432.436,97.97 C432.988003,96.9499949 433.264,95.7800066 433.264,94.46 C433.264,93.1399934 432.988003,91.9700051 432.436,90.95 C431.883997,89.9299949 431.122005,89.1440028 430.15,88.592 C429.177995,88.0399972 428.080006,87.764 426.856,87.764 C425.631994,87.764 424.534005,88.0399972 423.562,88.592 C422.589995,89.1440028 421.822003,89.9299949 421.258,90.95 C420.693997,91.9700051 420.412,93.1399934 420.412,94.46 C420.412,95.7800066 420.693997,96.9499949 421.258,97.97 C421.822003,98.9900051 422.589995,99.7819972 423.562,100.346 C424.534005,100.910003 425.631994,101.192 426.856,101.192 C428.080006,101.192 429.177995,100.910003 430.15,100.346 Z M455.26,87.944 L448.276,87.944 L448.276,104 L444.82,104 L444.82,87.944 L437.836,87.944 L437.836,84.92 L455.26,84.92 L455.26,87.944 Z M475.132,95.612 L459.652,95.612 C459.868001,97.2920084 460.605994,98.6419949 461.866,99.662 C463.126006,100.682005 464.691991,101.192 466.564,101.192 C468.844011,101.192 470.679993,100.424008 472.072,98.888 L473.98,101.12 C473.115996,102.128005 472.042006,102.895997 470.758,103.424 C469.473994,103.952003 468.040008,104.216 466.456,104.216 C464.43999,104.216 462.652008,103.802004 461.092,102.974 C459.531992,102.145996 458.326004,100.988007 457.474,99.5 C456.621996,98.0119926 456.196,96.3320094 456.196,94.46 C456.196,92.6119908 456.609996,90.9440074 457.438,89.456 C458.266004,87.9679926 459.405993,86.8100041 460.858,85.982 C462.310007,85.1539959 463.947991,84.74 465.772,84.74 C467.596009,84.74 469.221993,85.1539959 470.65,85.982 C472.078007,86.8100041 473.193996,87.9679926 473.998,89.456 C474.802004,90.9440074 475.204,92.6479904 475.204,94.568 C475.204,94.8320013 475.18,95.1799978 475.132,95.612 Z M461.614,89.168 C460.497994,90.176005 459.844001,91.4959918 459.652,93.128 L471.892,93.128 C471.699999,91.519992 471.046006,90.2060051 469.93,89.186 C468.813994,88.1659949 467.428008,87.656 465.772,87.656 C464.115992,87.656 462.730006,88.159995 461.614,89.168 Z M487.984,95.936 L484.024,95.936 L484.024,104 L480.568,104 L480.568,84.92 L484.024,84.92 L484.024,92.984 L488.056,92.984 L494.248,84.92 L497.956,84.92 L490.72,94.1 L498.46,104 L494.392,104 L487.984,95.936 Z M502.096,84.92 L505.552,84.92 L505.552,98.816 L517.252,84.92 L520.384,84.92 L520.384,104 L516.928,104 L516.928,90.104 L505.264,104 L502.096,104 L502.096,84.92 Z" id="Встроенные-библиотек" fill="#FFFFFF"></path>
                </g>
                <g id="Group-4" transform="translate(0.000000, 238.000000)">
                    <rect id="Rectangle-Copy" fill="#0075C9" x="0" y="-2.84217094e-14" width="566" height="188" rx="94"></rect>
                    <path d="M58.37,101.614 C56.3419899,100.497994 54.7520058,98.9620098 53.6,97.006 C52.4479942,95.0499902 51.872,92.8480122 51.872,90.4 C51.872,87.9519878 52.4479942,85.7500098 53.6,83.794 C54.7520058,81.8379902 56.3479898,80.3020056 58.388,79.186 C60.4280102,78.0699944 62.7079874,77.512 65.228,77.512 C67.1960098,77.512 68.9959918,77.8419967 70.628,78.502 C72.2600082,79.1620033 73.6519942,80.1399935 74.804,81.436 L72.464,83.704 C70.5679905,81.71199 68.2040142,80.716 65.372,80.716 C63.4999906,80.716 61.8080076,81.1359958 60.296,81.976 C58.7839924,82.8160042 57.6020043,83.9739926 56.75,85.45 C55.8979957,86.9260074 55.472,88.5759909 55.472,90.4 C55.472,92.2240091 55.8979957,93.8739926 56.75,95.35 C57.6020043,96.8260074 58.7839924,97.9839958 60.296,98.824 C61.8080076,99.6640042 63.4999906,100.084 65.372,100.084 C68.180014,100.084 70.5439904,99.0760101 72.464,97.06 L74.804,99.328 C73.6519942,100.624006 72.2540082,101.607997 70.61,102.28 C68.9659918,102.952003 67.1600098,103.288 65.192,103.288 C62.6719874,103.288 60.3980101,102.730006 58.37,101.614 Z M92.876,86.944 L85.892,86.944 L85.892,103 L82.436,103 L82.436,86.944 L75.452,86.944 L75.452,83.92 L92.876,83.92 L92.876,86.944 Z M98.636,101.956 C97.1239924,101.115996 95.9420043,99.9580074 95.09,98.482 C94.2379957,97.0059926 93.812,95.3320094 93.812,93.46 C93.812,91.5879906 94.2379957,89.9140074 95.09,88.438 C95.9420043,86.9619926 97.1239924,85.8100041 98.636,84.982 C100.148008,84.1539959 101.851991,83.74 103.748,83.74 C105.644009,83.74 107.341993,84.1539959 108.842,84.982 C110.342008,85.8100041 111.517996,86.9619926 112.37,88.438 C113.222004,89.9140074 113.648,91.5879906 113.648,93.46 C113.648,95.3320094 113.222004,97.0059926 112.37,98.482 C111.517996,99.9580074 110.342008,101.115996 108.842,101.956 C107.341993,102.796004 105.644009,103.216 103.748,103.216 C101.851991,103.216 100.148008,102.796004 98.636,101.956 Z M107.042,99.346 C108.014005,98.7819972 108.775997,97.9900051 109.328,96.97 C109.880003,95.9499949 110.156,94.7800066 110.156,93.46 C110.156,92.1399934 109.880003,90.9700051 109.328,89.95 C108.775997,88.9299949 108.014005,88.1440028 107.042,87.592 C106.069995,87.0399972 104.972006,86.764 103.748,86.764 C102.523994,86.764 101.426005,87.0399972 100.454,87.592 C99.4819951,88.1440028 98.7140028,88.9299949 98.15,89.95 C97.5859972,90.9700051 97.304,92.1399934 97.304,93.46 C97.304,94.7800066 97.5859972,95.9499949 98.15,96.97 C98.7140028,97.9900051 99.4819951,98.7819972 100.454,99.346 C101.426005,99.9100028 102.523994,100.192 103.748,100.192 C104.972006,100.192 106.069995,99.9100028 107.042,99.346 Z M133.736,84.964 C135.200007,85.7800041 136.345996,86.9199927 137.174,88.384 C138.002004,89.8480073 138.416,91.5399904 138.416,93.46 C138.416,95.3800096 138.002004,97.0779926 137.174,98.554 C136.345996,100.030007 135.200007,101.175996 133.736,101.992 C132.271993,102.808004 130.616009,103.216 128.768,103.216 C127.399993,103.216 126.146006,102.952003 125.006,102.424 C123.865994,101.895997 122.900004,101.128005 122.108,100.12 L122.108,109.984 L118.652,109.984 L118.652,83.92 L121.964,83.92 L121.964,86.944 C122.732004,85.8879947 123.703994,85.0900027 124.88,84.55 C126.056006,84.0099973 127.351993,83.74 128.768,83.74 C130.616009,83.74 132.271993,84.1479959 133.736,84.964 Z M131.774,99.346 C132.746005,98.7819972 133.513997,97.9900051 134.078,96.97 C134.642003,95.9499949 134.924,94.7800066 134.924,93.46 C134.924,92.1399934 134.642003,90.9700051 134.078,89.95 C133.513997,88.9299949 132.746005,88.1440028 131.774,87.592 C130.801995,87.0399972 129.704006,86.764 128.48,86.764 C127.279994,86.764 126.194005,87.0459972 125.222,87.61 C124.249995,88.1740028 123.482003,88.959995 122.918,89.968 C122.353997,90.976005 122.072,92.1399934 122.072,93.46 C122.072,94.7800066 122.347997,95.9499949 122.9,96.97 C123.452003,97.9900051 124.219995,98.7819972 125.204,99.346 C126.188005,99.9100028 127.279994,100.192 128.48,100.192 C129.704006,100.192 130.801995,99.9100028 131.774,99.346 Z M146.48,101.956 C144.967992,101.115996 143.786004,99.9580074 142.934,98.482 C142.081996,97.0059926 141.656,95.3320094 141.656,93.46 C141.656,91.5879906 142.081996,89.9140074 142.934,88.438 C143.786004,86.9619926 144.967992,85.8100041 146.48,84.982 C147.992008,84.1539959 149.695991,83.74 151.592,83.74 C153.488009,83.74 155.185993,84.1539959 156.686,84.982 C158.186008,85.8100041 159.361996,86.9619926 160.214,88.438 C161.066004,89.9140074 161.492,91.5879906 161.492,93.46 C161.492,95.3320094 161.066004,97.0059926 160.214,98.482 C159.361996,99.9580074 158.186008,101.115996 156.686,101.956 C155.185993,102.796004 153.488009,103.216 151.592,103.216 C149.695991,103.216 147.992008,102.796004 146.48,101.956 Z M154.886,99.346 C155.858005,98.7819972 156.619997,97.9900051 157.172,96.97 C157.724003,95.9499949 158,94.7800066 158,93.46 C158,92.1399934 157.724003,90.9700051 157.172,89.95 C156.619997,88.9299949 155.858005,88.1440028 154.886,87.592 C153.913995,87.0399972 152.816006,86.764 151.592,86.764 C150.367994,86.764 149.270005,87.0399972 148.298,87.592 C147.325995,88.1440028 146.558003,88.9299949 145.994,89.95 C145.429997,90.9700051 145.148,92.1399934 145.148,93.46 C145.148,94.7800066 145.429997,95.9499949 145.994,96.97 C146.558003,97.9900051 147.325995,98.7819972 148.298,99.346 C149.270005,99.9100028 150.367994,100.192 151.592,100.192 C152.816006,100.192 153.913995,99.9100028 154.886,99.346 Z M166.496,83.92 L169.952,83.92 L169.952,92.02 L180.824,92.02 L180.824,83.92 L184.28,83.92 L184.28,103 L180.824,103 L180.824,95.008 L169.952,95.008 L169.952,103 L166.496,103 L166.496,83.92 Z M191.012,83.92 L194.468,83.92 L194.468,92.02 L205.34,92.02 L205.34,83.92 L208.796,83.92 L208.796,103 L205.34,103 L205.34,95.008 L194.468,95.008 L194.468,103 L191.012,103 L191.012,83.92 Z M215.528,83.92 L218.984,83.92 L218.984,97.816 L230.684,83.92 L233.816,83.92 L233.816,103 L230.36,103 L230.36,89.104 L218.696,103 L215.528,103 L215.528,83.92 Z M257.684,94.612 L242.204,94.612 C242.420001,96.2920084 243.157994,97.6419949 244.418,98.662 C245.678006,99.6820051 247.243991,100.192 249.116,100.192 C251.396011,100.192 253.231993,99.4240077 254.624,97.888 L256.532,100.12 C255.667996,101.128005 254.594006,101.895997 253.31,102.424 C252.025994,102.952003 250.592008,103.216 249.008,103.216 C246.99199,103.216 245.204008,102.802004 243.644,101.974 C242.083992,101.145996 240.878004,99.9880074 240.026,98.5 C239.173996,97.0119926 238.748,95.3320094 238.748,93.46 C238.748,91.6119908 239.161996,89.9440074 239.99,88.456 C240.818004,86.9679926 241.957993,85.8100041 243.41,84.982 C244.862007,84.1539959 246.499991,83.74 248.324,83.74 C250.148009,83.74 251.773993,84.1539959 253.202,84.982 C254.630007,85.8100041 255.745996,86.9679926 256.55,88.456 C257.354004,89.9440074 257.756,91.6479904 257.756,93.568 C257.756,93.8320013 257.732,94.1799978 257.684,94.612 Z M244.166,88.168 C243.049994,89.176005 242.396001,90.4959918 242.204,92.128 L254.444,92.128 C254.251999,90.519992 253.598006,89.2060051 252.482,88.186 C251.365994,87.1659949 249.980008,86.656 248.324,86.656 C246.667992,86.656 245.282006,87.159995 244.166,88.168 Z M287.276,85.756 C288.668007,86.548004 289.753996,87.645993 290.534,89.05 C291.314004,90.454007 291.704,92.055991 291.704,93.856 C291.704,95.7040092 291.290004,97.3419929 290.462,98.77 C289.633996,100.198007 288.470008,101.307996 286.97,102.1 C285.469992,102.892004 283.76001,103.288 281.84,103.288 C278.599984,103.288 276.098009,102.178011 274.334,99.958 C272.569991,97.7379889 271.688,94.6120202 271.688,90.58 C271.688,86.6679804 272.491992,83.6020111 274.1,81.382 C275.708008,79.1619889 278.167983,77.6920036 281.48,76.972 L290.192,75.028 L290.696,78.196 L282.668,79.924 C280.171988,80.4760028 278.312006,81.4119934 277.088,82.732 C275.863994,84.0520066 275.168001,85.9479876 275,88.42 C275.816004,87.1959939 276.871994,86.2480034 278.168,85.576 C279.464006,84.9039966 280.915992,84.568 282.524,84.568 C284.300009,84.568 285.883993,84.963996 287.276,85.756 Z M285.17,99.58 C286.118005,99.0279972 286.855997,98.2660049 287.384,97.294 C287.912003,96.3219951 288.176,95.2120062 288.176,93.964 C288.176,92.0679905 287.600006,90.5440058 286.448,89.392 C285.295994,88.2399942 283.784009,87.664 281.912,87.664 C280.039991,87.664 278.522006,88.2399942 277.358,89.392 C276.193994,90.5440058 275.612,92.0679905 275.612,93.964 C275.612,95.2120062 275.881997,96.3219951 276.422,97.294 C276.962003,98.2660049 277.711995,99.0279972 278.672,99.58 C279.632005,100.132003 280.711994,100.408 281.912,100.408 C283.136006,100.408 284.221995,100.132003 285.17,99.58 Z M296.636,83.92 L300.092,83.92 L300.092,97.816 L311.792,83.92 L314.924,83.92 L314.924,103 L311.468,103 L311.468,89.104 L299.804,103 L296.636,103 L296.636,83.92 Z M336.092,85.756 C337.484007,86.548004 338.569996,87.645993 339.35,89.05 C340.130004,90.454007 340.52,92.055991 340.52,93.856 C340.52,95.7040092 340.106004,97.3419929 339.278,98.77 C338.449996,100.198007 337.286007,101.307996 335.786,102.1 C334.285993,102.892004 332.57601,103.288 330.656,103.288 C327.415984,103.288 324.914009,102.178011 323.15,99.958 C321.385991,97.7379889 320.504,94.6120202 320.504,90.58 C320.504,86.6679804 321.307992,83.6020111 322.916,81.382 C324.524008,79.1619889 326.983983,77.6920036 330.296,76.972 L339.008,75.028 L339.512,78.196 L331.484,79.924 C328.987988,80.4760028 327.128006,81.4119934 325.904,82.732 C324.679994,84.0520066 323.984001,85.9479876 323.816,88.42 C324.632004,87.1959939 325.687994,86.2480034 326.984,85.576 C328.280006,84.9039966 329.731992,84.568 331.34,84.568 C333.116009,84.568 334.699993,84.963996 336.092,85.756 Z M333.986,99.58 C334.934005,99.0279972 335.671997,98.2660049 336.2,97.294 C336.728003,96.3219951 336.992,95.2120062 336.992,93.964 C336.992,92.0679905 336.416006,90.5440058 335.264,89.392 C334.111994,88.2399942 332.600009,87.664 330.728,87.664 C328.855991,87.664 327.338006,88.2399942 326.174,89.392 C325.009994,90.5440058 324.428,92.0679905 324.428,93.964 C324.428,95.2120062 324.697997,96.3219951 325.238,97.294 C325.778003,98.2660049 326.527995,99.0279972 327.488,99.58 C328.448005,100.132003 329.527994,100.408 330.728,100.408 C331.952006,100.408 333.037995,100.132003 333.986,99.58 Z M361.688,83.92 L361.688,103 L358.232,103 L358.232,86.944 L350.024,86.944 L349.808,91.192 C349.687999,93.7600128 349.460002,95.9019914 349.124,97.618 C348.787998,99.3340086 348.236004,100.707995 347.468,101.74 C346.699996,102.772005 345.632007,103.288 344.264,103.288 C343.639997,103.288 342.932004,103.180001 342.14,102.964 L342.356,100.048 C342.668002,100.12 342.955999,100.156 343.22,100.156 C344.180005,100.156 344.899998,99.7360042 345.38,98.896 C345.860002,98.0559958 346.171999,97.0600058 346.316,95.908 C346.460001,94.7559942 346.591999,93.1120107 346.712,90.976 L347.036,83.92 L361.688,83.92 Z M368.384,83.92 L371.84,83.92 L371.84,97.816 L383.54,83.92 L386.672,83.92 L386.672,103 L383.216,103 L383.216,89.104 L371.552,103 L368.384,103 L368.384,83.92 Z M396.428,101.956 C394.915992,101.115996 393.734004,99.9580074 392.882,98.482 C392.029996,97.0059926 391.604,95.3320094 391.604,93.46 C391.604,91.5879906 392.029996,89.9140074 392.882,88.438 C393.734004,86.9619926 394.915992,85.8100041 396.428,84.982 C397.940008,84.1539959 399.643991,83.74 401.54,83.74 C403.436009,83.74 405.133993,84.1539959 406.634,84.982 C408.134007,85.8100041 409.309996,86.9619926 410.162,88.438 C411.014004,89.9140074 411.44,91.5879906 411.44,93.46 C411.44,95.3320094 411.014004,97.0059926 410.162,98.482 C409.309996,99.9580074 408.134007,101.115996 406.634,101.956 C405.133993,102.796004 403.436009,103.216 401.54,103.216 C399.643991,103.216 397.940008,102.796004 396.428,101.956 Z M404.834,99.346 C405.806005,98.7819972 406.567997,97.9900051 407.12,96.97 C407.672003,95.9499949 407.948,94.7800066 407.948,93.46 C407.948,92.1399934 407.672003,90.9700051 407.12,89.95 C406.567997,88.9299949 405.806005,88.1440028 404.834,87.592 C403.861995,87.0399972 402.764006,86.764 401.54,86.764 C400.315994,86.764 399.218005,87.0399972 398.246,87.592 C397.273995,88.1440028 396.506003,88.9299949 395.942,89.95 C395.377997,90.9700051 395.096,92.1399934 395.096,93.46 C395.096,94.7800066 395.377997,95.9499949 395.942,96.97 C396.506003,97.9900051 397.273995,98.7819972 398.246,99.346 C399.218005,99.9100028 400.315994,100.192 401.54,100.192 C402.764006,100.192 403.861995,99.9100028 404.834,99.346 Z M429.944,86.944 L422.96,86.944 L422.96,103 L419.504,103 L419.504,86.944 L412.52,86.944 L412.52,83.92 L429.944,83.92 L429.944,86.944 Z M449.816,94.612 L434.336,94.612 C434.552001,96.2920084 435.289994,97.6419949 436.55,98.662 C437.810006,99.6820051 439.375991,100.192 441.248,100.192 C443.528011,100.192 445.363993,99.4240077 446.756,97.888 L448.664,100.12 C447.799996,101.128005 446.726006,101.895997 445.442,102.424 C444.157994,102.952003 442.724008,103.216 441.14,103.216 C439.12399,103.216 437.336008,102.802004 435.776,101.974 C434.215992,101.145996 433.010004,99.9880074 432.158,98.5 C431.305996,97.0119926 430.88,95.3320094 430.88,93.46 C430.88,91.6119908 431.293996,89.9440074 432.122,88.456 C432.950004,86.9679926 434.089993,85.8100041 435.542,84.982 C436.994007,84.1539959 438.631991,83.74 440.456,83.74 C442.280009,83.74 443.905993,84.1539959 445.334,84.982 C446.762007,85.8100041 447.877996,86.9679926 448.682,88.456 C449.486004,89.9440074 449.888,91.6479904 449.888,93.568 C449.888,93.8320013 449.864,94.1799978 449.816,94.612 Z M436.298,88.168 C435.181994,89.176005 434.528001,90.4959918 434.336,92.128 L446.576,92.128 C446.383999,90.519992 445.730006,89.2060051 444.614,88.186 C443.497994,87.1659949 442.112008,86.656 440.456,86.656 C438.799992,86.656 437.414006,87.159995 436.298,88.168 Z M462.668,94.936 L458.708,94.936 L458.708,103 L455.252,103 L455.252,83.92 L458.708,83.92 L458.708,91.984 L462.74,91.984 L468.932,83.92 L472.64,83.92 L465.404,93.1 L473.144,103 L469.076,103 L462.668,94.936 Z M476.78,83.92 L480.236,83.92 L480.236,97.816 L491.936,83.92 L495.068,83.92 L495.068,103 L491.612,103 L491.612,89.104 L479.948,103 L476.78,103 L476.78,83.92 Z" id="Сторонние-библиотеки" fill="#FFFFFF"></path>
                </g>
                <g id="Group-3" transform="translate(0.000000, 476.000000)">
                    <rect id="Rectangle-Copy-2" fill="#00C4B3" x="0" y="0" width="566" height="188" rx="94"></rect>
                    <path d="M159.066,99.212 C156.737988,101.108009 153.450021,102.127999 149.202,102.272 L149.202,104.936 L145.854,104.936 L145.854,102.272 C141.605979,102.103999 138.312012,101.072009 135.972,99.176 C133.631988,97.2799905 132.462,94.6760166 132.462,91.364 C132.462,88.0279833 133.631988,85.4120095 135.972,83.516 C138.312012,81.6199905 141.605979,80.5880008 145.854,80.42 L145.854,77.864 L149.202,77.864 L149.202,80.42 C153.426021,80.5880008 156.707988,81.6259905 159.048,83.534 C161.388012,85.4420095 162.558,88.0519834 162.558,91.364 C162.558,94.7000167 161.394012,97.3159905 159.066,99.212 Z M156.564,97.106 C158.256008,95.7259931 159.102,93.8000124 159.102,91.328 C159.102,88.9039879 158.244009,87.0020069 156.528,85.622 C154.811991,84.2419931 152.370016,83.456001 149.202,83.264 L149.202,99.464 C152.418016,99.271999 154.871992,98.4860069 156.564,97.106 Z M138.528,97.106 C140.244009,98.4860069 142.685984,99.271999 145.854,99.464 L145.854,83.264 C142.637984,83.456001 140.184008,84.2359932 138.492,85.604 C136.799992,86.9720068 135.954,88.8919876 135.954,91.364 C135.954,93.8120122 136.811991,95.7259931 138.528,97.106 Z M180.396,86.684 C181.800007,87.9800065 182.502,89.9119872 182.502,92.48 L182.502,104 L179.226,104 L179.226,101.48 C178.649997,102.368004 177.828005,103.045998 176.76,103.514 C175.691995,103.982002 174.426007,104.216 172.962,104.216 C170.825989,104.216 169.116006,103.700005 167.832,102.668 C166.547994,101.635995 165.906,100.280008 165.906,98.6 C165.906,96.9199916 166.517994,95.5700051 167.742,94.55 C168.966006,93.5299949 170.909987,93.02 173.574,93.02 L179.046,93.02 L179.046,92.336 C179.046,90.8479926 178.614004,89.708004 177.75,88.916 C176.885996,88.123996 175.614008,87.728 173.934,87.728 C172.805994,87.728 171.702005,87.9139981 170.622,88.286 C169.541995,88.6580019 168.630004,89.1559969 167.886,89.78 L166.446,87.188 C167.430005,86.395996 168.605993,85.7900021 169.974,85.37 C171.342007,84.9499979 172.793992,84.74 174.33,84.74 C176.970013,84.74 178.991993,85.3879935 180.396,86.684 Z M176.958,100.67 C177.918005,100.081997 178.613998,99.2480054 179.046,98.168 L179.046,95.504 L173.718,95.504 C170.789985,95.504 169.326,96.4879902 169.326,98.456 C169.326,99.4160048 169.697996,100.171997 170.442,100.724 C171.186004,101.276003 172.217993,101.552 173.538,101.552 C174.858007,101.552 175.997995,101.258003 176.958,100.67 Z M188.73,84.92 L192.186,84.92 L192.186,98.816 L203.886,84.92 L207.018,84.92 L207.018,104 L203.562,104 L203.562,90.104 L191.898,104 L188.73,104 L188.73,84.92 Z M193.518,81.158 C192.533995,80.3059957 192.03,79.076008 192.006,77.468 L194.346,77.468 C194.37,78.3560044 194.675997,79.0699973 195.264,79.61 C195.852003,80.1500027 196.637995,80.42 197.622,80.42 C198.606005,80.42 199.397997,80.1500027 199.998,79.61 C200.598003,79.0699973 200.91,78.3560044 200.934,77.468 L203.346,77.468 C203.322,79.076008 202.806005,80.3059957 201.798,81.158 C200.789995,82.0100043 199.410009,82.436 197.658,82.436 C195.881991,82.436 194.502005,82.0100043 193.518,81.158 Z M230.094,84.92 L230.094,104 L226.638,104 L226.638,87.944 L218.43,87.944 L218.214,92.192 C218.093999,94.7600128 217.866002,96.9019914 217.53,98.618 C217.193998,100.334009 216.642004,101.707995 215.874,102.74 C215.105996,103.772005 214.038007,104.288 212.67,104.288 C212.045997,104.288 211.338004,104.180001 210.546,103.964 L210.762,101.048 C211.074002,101.12 211.361999,101.156 211.626,101.156 C212.586005,101.156 213.305998,100.736004 213.786,99.896 C214.266002,99.0559958 214.577999,98.0600058 214.722,96.908 C214.866001,95.7559942 214.997999,94.1120107 215.118,91.976 L215.442,84.92 L230.094,84.92 Z M250.902,93.056 C252.174006,94.1360054 252.81,95.6599902 252.81,97.628 C252.81,99.6920103 252.120007,101.281994 250.74,102.398 C249.359993,103.514006 247.386013,104.06 244.818,104.036 L236.79,104 L236.79,84.92 L240.246,84.92 L240.246,91.364 L245.394,91.4 C247.794012,91.4240001 249.629994,91.9759946 250.902,93.056 Z M255.654,84.92 L259.11,84.92 L259.11,104 L255.654,104 L255.654,84.92 Z M248.112,100.472 C248.916004,99.8239968 249.318,98.8640064 249.318,97.592 C249.318,96.3439938 248.922004,95.4320029 248.13,94.856 C247.337996,94.2799971 246.150008,93.9800001 244.566,93.956 L240.246,93.884 L240.246,101.372 L244.566,101.408 C246.126008,101.432 247.307996,101.120003 248.112,100.472 Z M293.202,84.92 L293.202,104 L289.746,104 L289.746,87.944 L278.982,87.944 L278.982,104 L275.526,104 L275.526,84.92 L293.202,84.92 Z M314.982,85.964 C316.446007,86.7800041 317.591996,87.9199927 318.42,89.384 C319.248004,90.8480073 319.662,92.5399904 319.662,94.46 C319.662,96.3800096 319.248004,98.0779926 318.42,99.554 C317.591996,101.030007 316.446007,102.175996 314.982,102.992 C313.517993,103.808004 311.862009,104.216 310.014,104.216 C308.645993,104.216 307.392006,103.952003 306.252,103.424 C305.111994,102.895997 304.146004,102.128005 303.354,101.12 L303.354,110.984 L299.898,110.984 L299.898,84.92 L303.21,84.92 L303.21,87.944 C303.978004,86.8879947 304.949994,86.0900027 306.126,85.55 C307.302006,85.0099973 308.597993,84.74 310.014,84.74 C311.862009,84.74 313.517993,85.1479959 314.982,85.964 Z M313.02,100.346 C313.992005,99.7819972 314.759997,98.9900051 315.324,97.97 C315.888003,96.9499949 316.17,95.7800066 316.17,94.46 C316.17,93.1399934 315.888003,91.9700051 315.324,90.95 C314.759997,89.9299949 313.992005,89.1440028 313.02,88.592 C312.047995,88.0399972 310.950006,87.764 309.726,87.764 C308.525994,87.764 307.440005,88.0459972 306.468,88.61 C305.495995,89.1740028 304.728003,89.959995 304.164,90.968 C303.599997,91.976005 303.318,93.1399934 303.318,94.46 C303.318,95.7800066 303.593997,96.9499949 304.146,97.97 C304.698003,98.9900051 305.465995,99.7819972 306.45,100.346 C307.434005,100.910003 308.525994,101.192 309.726,101.192 C310.950006,101.192 312.047995,100.910003 313.02,100.346 Z M327.726,102.956 C326.213992,102.115996 325.032004,100.958007 324.18,99.482 C323.327996,98.0059926 322.902,96.3320094 322.902,94.46 C322.902,92.5879906 323.327996,90.9140074 324.18,89.438 C325.032004,87.9619926 326.213992,86.8100041 327.726,85.982 C329.238008,85.1539959 330.941991,84.74 332.838,84.74 C334.734009,84.74 336.431992,85.1539959 337.932,85.982 C339.432008,86.8100041 340.607996,87.9619926 341.46,89.438 C342.312004,90.9140074 342.738,92.5879906 342.738,94.46 C342.738,96.3320094 342.312004,98.0059926 341.46,99.482 C340.607996,100.958007 339.432008,102.115996 337.932,102.956 C336.431992,103.796004 334.734009,104.216 332.838,104.216 C330.941991,104.216 329.238008,103.796004 327.726,102.956 Z M336.132,100.346 C337.104005,99.7819972 337.865997,98.9900051 338.418,97.97 C338.970003,96.9499949 339.246,95.7800066 339.246,94.46 C339.246,93.1399934 338.970003,91.9700051 338.418,90.95 C337.865997,89.9299949 337.104005,89.1440028 336.132,88.592 C335.159995,88.0399972 334.062006,87.764 332.838,87.764 C331.613994,87.764 330.516005,88.0399972 329.544,88.592 C328.571995,89.1440028 327.804003,89.9299949 327.24,90.95 C326.675997,91.9700051 326.394,93.1399934 326.394,94.46 C326.394,95.7800066 326.675997,96.9499949 327.24,97.97 C327.804003,98.9900051 328.571995,99.7819972 329.544,100.346 C330.516005,100.910003 331.613994,101.192 332.838,101.192 C334.062006,101.192 335.159995,100.910003 336.132,100.346 Z M364.914,95.612 L349.434,95.612 C349.650001,97.2920084 350.387994,98.6419949 351.648,99.662 C352.908006,100.682005 354.473991,101.192 356.346,101.192 C358.626011,101.192 360.461993,100.424008 361.854,98.888 L363.762,101.12 C362.897996,102.128005 361.824006,102.895997 360.54,103.424 C359.255994,103.952003 357.822008,104.216 356.238,104.216 C354.22199,104.216 352.434008,103.802004 350.874,102.974 C349.313992,102.145996 348.108004,100.988007 347.256,99.5 C346.403996,98.0119926 345.978,96.3320094 345.978,94.46 C345.978,92.6119908 346.391996,90.9440074 347.22,89.456 C348.048004,87.9679926 349.187993,86.8100041 350.64,85.982 C352.092007,85.1539959 353.729991,84.74 355.554,84.74 C357.378009,84.74 359.003993,85.1539959 360.432,85.982 C361.860007,86.8100041 362.975996,87.9679926 363.78,89.456 C364.584004,90.9440074 364.986,92.6479904 364.986,94.568 C364.986,94.8320013 364.962,95.1799978 364.914,95.612 Z M351.396,89.168 C350.279994,90.176005 349.626001,91.4959918 349.434,93.128 L361.674,93.128 C361.481999,91.519992 360.828006,90.2060051 359.712,89.186 C358.595994,88.1659949 357.210008,87.656 355.554,87.656 C353.897992,87.656 352.512006,88.159995 351.396,89.168 Z M377.766,95.936 L373.806,95.936 L373.806,104 L370.35,104 L370.35,84.92 L373.806,84.92 L373.806,92.984 L377.838,92.984 L384.03,84.92 L387.738,84.92 L380.502,94.1 L388.242,104 L384.174,104 L377.766,95.936 Z M405.774,87.944 L398.79,87.944 L398.79,104 L395.334,104 L395.334,87.944 L388.35,87.944 L388.35,84.92 L405.774,84.92 L405.774,87.944 Z M422.172,86.684 C423.576007,87.9800065 424.278,89.9119872 424.278,92.48 L424.278,104 L421.002,104 L421.002,101.48 C420.425997,102.368004 419.604005,103.045998 418.536,103.514 C417.467995,103.982002 416.202007,104.216 414.738,104.216 C412.601989,104.216 410.892006,103.700005 409.608,102.668 C408.323994,101.635995 407.682,100.280008 407.682,98.6 C407.682,96.9199916 408.293994,95.5700051 409.518,94.55 C410.742006,93.5299949 412.685987,93.02 415.35,93.02 L420.822,93.02 L420.822,92.336 C420.822,90.8479926 420.390004,89.708004 419.526,88.916 C418.661996,88.123996 417.390008,87.728 415.71,87.728 C414.581994,87.728 413.478005,87.9139981 412.398,88.286 C411.317995,88.6580019 410.406004,89.1559969 409.662,89.78 L408.222,87.188 C409.206005,86.395996 410.381993,85.7900021 411.75,85.37 C413.118007,84.9499979 414.569992,84.74 416.106,84.74 C418.746013,84.74 420.767993,85.3879935 422.172,86.684 Z M418.734,100.67 C419.694005,100.081997 420.389998,99.2480054 420.822,98.168 L420.822,95.504 L415.494,95.504 C412.565985,95.504 411.102,96.4879902 411.102,98.456 C411.102,99.4160048 411.473996,100.171997 412.218,100.724 C412.962004,101.276003 413.993993,101.552 415.314,101.552 C416.634007,101.552 417.773995,101.258003 418.734,100.67 Z" id="Файлы-проекта" fill="#FFFFFF"></path>
                </g>
                <g id="Group-2" transform="translate(0.000000, 714.000000)">
                    <rect id="Rectangle-Copy-3" fill="#00A8E1" x="0" y="0" width="566" height="188" rx="94"></rect>
                    <path d="M118.412,80.932 L105.452,80.932 L105.488,103 L101.924,103 L101.924,77.8 L118.448,77.8 L118.412,80.932 Z M133.964,94.612 L118.484,94.612 C118.700001,96.2920084 119.437994,97.6419949 120.698,98.662 C121.958006,99.6820051 123.523991,100.192 125.396,100.192 C127.676011,100.192 129.511993,99.4240077 130.904,97.888 L132.812,100.12 C131.947996,101.128005 130.874006,101.895997 129.59,102.424 C128.305994,102.952003 126.872008,103.216 125.288,103.216 C123.27199,103.216 121.484008,102.802004 119.924,101.974 C118.363992,101.145996 117.158004,99.9880074 116.306,98.5 C115.453996,97.0119926 115.028,95.3320094 115.028,93.46 C115.028,91.6119908 115.441996,89.9440074 116.27,88.456 C117.098004,86.9679926 118.237993,85.8100041 119.69,84.982 C121.142007,84.1539959 122.779991,83.74 124.604,83.74 C126.428009,83.74 128.053993,84.1539959 129.482,84.982 C130.910007,85.8100041 132.025996,86.9679926 132.83,88.456 C133.634004,89.9440074 134.036,91.6479904 134.036,93.568 C134.036,93.8320013 134.012,94.1799978 133.964,94.612 Z M120.446,88.168 C119.329994,89.176005 118.676001,90.4959918 118.484,92.128 L130.724,92.128 C130.531999,90.519992 129.878006,89.2060051 128.762,88.186 C127.645994,87.1659949 126.260008,86.656 124.604,86.656 C122.947992,86.656 121.562006,87.159995 120.446,88.168 Z M139.4,83.92 L142.856,83.92 L142.856,92.02 L153.728,92.02 L153.728,83.92 L157.184,83.92 L157.184,103 L153.728,103 L153.728,95.008 L142.856,95.008 L142.856,103 L139.4,103 L139.4,83.92 Z M181.088,94.612 L165.608,94.612 C165.824001,96.2920084 166.561994,97.6419949 167.822,98.662 C169.082006,99.6820051 170.647991,100.192 172.52,100.192 C174.800011,100.192 176.635993,99.4240077 178.028,97.888 L179.936,100.12 C179.071996,101.128005 177.998006,101.895997 176.714,102.424 C175.429994,102.952003 173.996008,103.216 172.412,103.216 C170.39599,103.216 168.608008,102.802004 167.048,101.974 C165.487992,101.145996 164.282004,99.9880074 163.43,98.5 C162.577996,97.0119926 162.152,95.3320094 162.152,93.46 C162.152,91.6119908 162.565996,89.9440074 163.394,88.456 C164.222004,86.9679926 165.361993,85.8100041 166.814,84.982 C168.266007,84.1539959 169.903991,83.74 171.728,83.74 C173.552009,83.74 175.177993,84.1539959 176.606,84.982 C178.034007,85.8100041 179.149996,86.9679926 179.954,88.456 C180.758004,89.9440074 181.16,91.6479904 181.16,93.568 C181.16,93.8320013 181.136,94.1799978 181.088,94.612 Z M167.57,88.168 C166.453994,89.176005 165.800001,90.4959918 165.608,92.128 L177.848,92.128 C177.655999,90.519992 177.002006,89.2060051 175.886,88.186 C174.769994,87.1659949 173.384008,86.656 171.728,86.656 C170.071992,86.656 168.686006,87.159995 167.57,88.168 Z M201.608,84.964 C203.072007,85.7800041 204.217996,86.9199927 205.046,88.384 C205.874004,89.8480073 206.288,91.5399904 206.288,93.46 C206.288,95.3800096 205.874004,97.0779926 205.046,98.554 C204.217996,100.030007 203.072007,101.175996 201.608,101.992 C200.143993,102.808004 198.488009,103.216 196.64,103.216 C195.271993,103.216 194.018006,102.952003 192.878,102.424 C191.737994,101.895997 190.772004,101.128005 189.98,100.12 L189.98,109.984 L186.524,109.984 L186.524,83.92 L189.836,83.92 L189.836,86.944 C190.604004,85.8879947 191.575994,85.0900027 192.752,84.55 C193.928006,84.0099973 195.223993,83.74 196.64,83.74 C198.488009,83.74 200.143993,84.1479959 201.608,84.964 Z M199.646,99.346 C200.618005,98.7819972 201.385997,97.9900051 201.95,96.97 C202.514003,95.9499949 202.796,94.7800066 202.796,93.46 C202.796,92.1399934 202.514003,90.9700051 201.95,89.95 C201.385997,88.9299949 200.618005,88.1440028 199.646,87.592 C198.673995,87.0399972 197.576006,86.764 196.352,86.764 C195.151994,86.764 194.066005,87.0459972 193.094,87.61 C192.121995,88.1740028 191.354003,88.959995 190.79,89.968 C190.225997,90.976005 189.944,92.1399934 189.944,93.46 C189.944,94.7800066 190.219997,95.9499949 190.772,96.97 C191.324003,97.9900051 192.091995,98.7819972 193.076,99.346 C194.060005,99.9100028 195.151994,100.192 196.352,100.192 C197.576006,100.192 198.673995,99.9100028 199.646,99.346 Z M211.292,83.92 L214.748,83.92 L214.748,97.816 L226.448,83.92 L229.58,83.92 L229.58,103 L226.124,103 L226.124,89.104 L214.46,103 L211.292,103 L211.292,83.92 Z M251.36,84.964 C252.824007,85.7800041 253.969996,86.9199927 254.798,88.384 C255.626004,89.8480073 256.04,91.5399904 256.04,93.46 C256.04,95.3800096 255.626004,97.0779926 254.798,98.554 C253.969996,100.030007 252.824007,101.175996 251.36,101.992 C249.895993,102.808004 248.240009,103.216 246.392,103.216 C245.023993,103.216 243.770006,102.952003 242.63,102.424 C241.489994,101.895997 240.524004,101.128005 239.732,100.12 L239.732,109.984 L236.276,109.984 L236.276,83.92 L239.588,83.92 L239.588,86.944 C240.356004,85.8879947 241.327994,85.0900027 242.504,84.55 C243.680006,84.0099973 244.975993,83.74 246.392,83.74 C248.240009,83.74 249.895993,84.1479959 251.36,84.964 Z M249.398,99.346 C250.370005,98.7819972 251.137997,97.9900051 251.702,96.97 C252.266003,95.9499949 252.548,94.7800066 252.548,93.46 C252.548,92.1399934 252.266003,90.9700051 251.702,89.95 C251.137997,88.9299949 250.370005,88.1440028 249.398,87.592 C248.425995,87.0399972 247.328006,86.764 246.104,86.764 C244.903994,86.764 243.818005,87.0459972 242.846,87.61 C241.873995,88.1740028 241.106003,88.959995 240.542,89.968 C239.977997,90.976005 239.696,92.1399934 239.696,93.46 C239.696,94.7800066 239.971997,95.9499949 240.524,96.97 C241.076003,97.9900051 241.843995,98.7819972 242.828,99.346 C243.812005,99.9100028 244.903994,100.192 246.104,100.192 C247.328006,100.192 248.425995,99.9100028 249.398,99.346 Z M264.104,101.956 C262.591992,101.115996 261.410004,99.9580074 260.558,98.482 C259.705996,97.0059926 259.28,95.3320094 259.28,93.46 C259.28,91.5879906 259.705996,89.9140074 260.558,88.438 C261.410004,86.9619926 262.591992,85.8100041 264.104,84.982 C265.616008,84.1539959 267.319991,83.74 269.216,83.74 C271.112009,83.74 272.809993,84.1539959 274.31,84.982 C275.810008,85.8100041 276.985996,86.9619926 277.838,88.438 C278.690004,89.9140074 279.116,91.5879906 279.116,93.46 C279.116,95.3320094 278.690004,97.0059926 277.838,98.482 C276.985996,99.9580074 275.810008,101.115996 274.31,101.956 C272.809993,102.796004 271.112009,103.216 269.216,103.216 C267.319991,103.216 265.616008,102.796004 264.104,101.956 Z M272.51,99.346 C273.482005,98.7819972 274.243997,97.9900051 274.796,96.97 C275.348003,95.9499949 275.624,94.7800066 275.624,93.46 C275.624,92.1399934 275.348003,90.9700051 274.796,89.95 C274.243997,88.9299949 273.482005,88.1440028 272.51,87.592 C271.537995,87.0399972 270.440006,86.764 269.216,86.764 C267.991994,86.764 266.894005,87.0399972 265.922,87.592 C264.949995,88.1440028 264.182003,88.9299949 263.618,89.95 C263.053997,90.9700051 262.772,92.1399934 262.772,93.46 C262.772,94.7800066 263.053997,95.9499949 263.618,96.97 C264.182003,97.9900051 264.949995,98.7819972 265.922,99.346 C266.894005,99.9100028 267.991994,100.192 269.216,100.192 C270.440006,100.192 271.537995,99.9100028 272.51,99.346 Z M300.824,97.744 C300.824,99.4240084 300.194006,100.719995 298.934,101.632 C297.673994,102.544005 295.796012,103 293.3,103 L284.12,103 L284.12,83.92 L292.976,83.92 C295.232011,83.92 296.995994,84.3459957 298.268,85.198 C299.540006,86.0500043 300.176,87.2559922 300.176,88.816 C300.176,89.824005 299.906003,90.6939963 299.366,91.426 C298.825997,92.1580037 298.076005,92.7159981 297.116,93.1 C299.588012,93.7240031 300.824,95.2719876 300.824,97.744 Z M287.504,92.128 L292.688,92.128 C294.008007,92.128 295.009997,91.8880024 295.694,91.408 C296.378003,90.9279976 296.72,90.2320046 296.72,89.32 C296.72,87.4959909 295.376013,86.584 292.688,86.584 L287.504,86.584 L287.504,92.128 Z M296.288,99.652 C297.008004,99.1959977 297.368,98.4880048 297.368,97.528 C297.368,96.5439951 297.038003,95.8120024 296.378,95.332 C295.717997,94.8519976 294.680007,94.612 293.264,94.612 L287.504,94.612 L287.504,100.336 L293.048,100.336 C294.488007,100.336 295.567996,100.108002 296.288,99.652 Z M319.094,85.684 C320.498007,86.9800065 321.2,88.9119872 321.2,91.48 L321.2,103 L317.924,103 L317.924,100.48 C317.347997,101.368004 316.526005,102.045998 315.458,102.514 C314.389995,102.982002 313.124007,103.216 311.66,103.216 C309.523989,103.216 307.814006,102.700005 306.53,101.668 C305.245994,100.635995 304.604,99.2800084 304.604,97.6 C304.604,95.9199916 305.215994,94.5700051 306.44,93.55 C307.664006,92.5299949 309.607987,92.02 312.272,92.02 L317.744,92.02 L317.744,91.336 C317.744,89.8479926 317.312004,88.708004 316.448,87.916 C315.583996,87.123996 314.312008,86.728 312.632,86.728 C311.503994,86.728 310.400005,86.9139981 309.32,87.286 C308.239995,87.6580019 307.328004,88.1559969 306.584,88.78 L305.144,86.188 C306.128005,85.395996 307.303993,84.7900021 308.672,84.37 C310.040007,83.9499979 311.491992,83.74 313.028,83.74 C315.668013,83.74 317.689993,84.3879935 319.094,85.684 Z M315.656,99.67 C316.616005,99.0819971 317.311998,98.2480054 317.744,97.168 L317.744,94.504 L312.416,94.504 C309.487985,94.504 308.024,95.4879902 308.024,97.456 C308.024,98.4160048 308.395996,99.1719972 309.14,99.724 C309.884004,100.276003 310.915993,100.552 312.236,100.552 C313.556007,100.552 314.695995,100.258003 315.656,99.67 Z M327.428,83.92 L330.884,83.92 L330.884,92.02 L341.756,92.02 L341.756,83.92 L345.212,83.92 L345.212,103 L341.756,103 L341.756,95.008 L330.884,95.008 L330.884,103 L327.428,103 L327.428,83.92 Z M351.944,83.92 L355.4,83.92 L355.4,92.02 L366.272,92.02 L366.272,83.92 L369.728,83.92 L369.728,103 L366.272,103 L366.272,95.008 L355.4,95.008 L355.4,103 L351.944,103 L351.944,83.92 Z M390.572,92.056 C391.844006,93.1360054 392.48,94.6599902 392.48,96.628 C392.48,98.6920103 391.790007,100.281994 390.41,101.398 C389.029993,102.514006 387.056013,103.06 384.488,103.036 L376.46,103 L376.46,83.92 L379.916,83.92 L379.916,90.364 L385.064,90.4 C387.464012,90.4240001 389.299994,90.9759946 390.572,92.056 Z M395.324,83.92 L398.78,83.92 L398.78,103 L395.324,103 L395.324,83.92 Z M387.782,99.472 C388.586004,98.8239968 388.988,97.8640064 388.988,96.592 C388.988,95.3439938 388.592004,94.4320029 387.8,93.856 C387.007996,93.2799971 385.820008,92.9800001 384.236,92.956 L379.916,92.884 L379.916,100.372 L384.236,100.408 C385.796008,100.432 386.977996,100.120003 387.782,99.472 Z M405.512,83.92 L408.968,83.92 L408.968,97.816 L420.668,83.92 L423.8,83.92 L423.8,103 L420.344,103 L420.344,89.104 L408.68,103 L405.512,103 L405.512,83.92 Z M410.3,80.158 C409.315995,79.3059957 408.812,78.076008 408.788,76.468 L411.128,76.468 C411.152,77.3560044 411.457997,78.0699973 412.046,78.61 C412.634003,79.1500027 413.419995,79.42 414.404,79.42 C415.388005,79.42 416.179997,79.1500027 416.78,78.61 C417.380003,78.0699973 417.692,77.3560044 417.716,76.468 L420.128,76.468 C420.104,78.076008 419.588005,79.3059957 418.58,80.158 C417.571995,81.0100043 416.192009,81.436 414.44,81.436 C412.663991,81.436 411.284005,81.0100043 410.3,80.158 Z M447.596,94.936 L443.636,94.936 L443.636,103 L440.18,103 L440.18,83.92 L443.636,83.92 L443.636,91.984 L447.668,91.984 L453.86,83.92 L457.568,83.92 L450.332,93.1 L458.072,103 L454.004,103 L447.596,94.936 Z M464.12,101.956 C462.607992,101.115996 461.426004,99.9580074 460.574,98.482 C459.721996,97.0059926 459.296,95.3320094 459.296,93.46 C459.296,91.5879906 459.721996,89.9140074 460.574,88.438 C461.426004,86.9619926 462.607992,85.8100041 464.12,84.982 C465.632008,84.1539959 467.335991,83.74 469.232,83.74 C471.128009,83.74 472.825993,84.1539959 474.326,84.982 C475.826008,85.8100041 477.001996,86.9619926 477.854,88.438 C478.706004,89.9140074 479.132,91.5879906 479.132,93.46 C479.132,95.3320094 478.706004,97.0059926 477.854,98.482 C477.001996,99.9580074 475.826008,101.115996 474.326,101.956 C472.825993,102.796004 471.128009,103.216 469.232,103.216 C467.335991,103.216 465.632008,102.796004 464.12,101.956 Z M472.526,99.346 C473.498005,98.7819972 474.259997,97.9900051 474.812,96.97 C475.364003,95.9499949 475.64,94.7800066 475.64,93.46 C475.64,92.1399934 475.364003,90.9700051 474.812,89.95 C474.259997,88.9299949 473.498005,88.1440028 472.526,87.592 C471.553995,87.0399972 470.456006,86.764 469.232,86.764 C468.007994,86.764 466.910005,87.0399972 465.938,87.592 C464.965995,88.1440028 464.198003,88.9299949 463.634,89.95 C463.069997,90.9700051 462.788,92.1399934 462.788,93.46 C462.788,94.7800066 463.069997,95.9499949 463.634,96.97 C464.198003,97.9900051 464.965995,98.7819972 465.938,99.346 C466.910005,99.9100028 468.007994,100.192 469.232,100.192 C470.456006,100.192 471.553995,99.9100028 472.526,99.346 Z M503.396,99.976 L503.396,107.428 L500.156,107.428 L500.156,103 L484.208,103 L484.208,107.428 L480.932,107.428 L480.932,99.976 L481.94,99.976 C483.164006,99.9039996 484.003998,99.0400083 484.46,97.384 C484.916002,95.7279917 485.227999,93.3880151 485.396,90.364 L485.684,83.92 L500.48,83.92 L500.48,99.976 L503.396,99.976 Z M487.97,96.574 C487.669999,98.1460079 487.124004,99.2799965 486.332,99.976 L497.024,99.976 L497.024,86.944 L488.744,86.944 L488.564,90.616 C488.468,93.016012 488.270002,95.0019921 487.97,96.574 Z" id="Генерированный-код" fill="#FFFFFF"></path>
                </g>
            </g>
            <g id="Group-8" transform="translate(1487.000000, 582.000000)">
                <g id="Group" fill-rule="nonzero">
                    <path d="M138.763889,143.659091 L104.907407,109.772727 L104.907407,354.136364 L105.384259,365.590909 C105.384259,370.840909 106.337963,377.045455 108.24537,383.25 L376.236111,477.75 L442.99537,448.159091 L442.99537,448.159091 L138.763889,143.659091 Z" id="Shape" fill="#00C4B3"></path>
                    <path d="M443.949074,446.727273 L377.189815,476.318182 L109.675926,381.818182 C114.921296,401.386364 125.888889,423.340909 138.287037,435.75 L225.550926,522.613636 L420.106481,523.090909 L443.949074,446.727273 L443.949074,446.727273 Z" id="Shape" fill="#22D3C5"></path>
                    <path d="M108.377783,109.772727 L4.42407897,267.272727 C-4.15925436,276.340909 0.132412306,295.431818 13.961116,309.75 L74.0444493,370.363636 L111.715746,383.727273 C110.28519,377.522727 108.854635,371.318182 108.854635,366.068182 L108.377783,354.613636 L108.377783,109.772727 L108.377783,109.772727 Z" id="Shape" fill="#0075C9"></path>
                    <path d="M378.143519,108.340909 C371.944444,106.909091 365.74537,105.954545 360.5,105.477273 L348.578704,105 L104.907407,105 L442.99537,443.386364 L442.99537,443.386364 L472.560185,376.568182 L378.143519,108.340909 Z" id="Shape" fill="#0075C9"></path>
                    <path d="M376.712963,109.772727 L376.712963,109.772727 L376.712963,109.772727 L376.712963,109.772727 Z M431.074074,138.409091 C418.675926,126 397.217593,114.545455 377.189815,109.772727 L471.606481,378 L442.041667,444.818182 L442.041667,444.818182 L514.523148,421.431818 L514.523148,222.409091 L431.074074,138.409091 Z" id="Shape" fill="#00A8E1"></path>
                    <path d="M365.268519,74.1098019 L304.708333,13.9734383 C290.87963,0.132529175 271.805556,-4.16292537 262.268519,4.42798372 L104.907407,108.473438 L348.578704,108.473438 L360.5,108.950711 C365.74537,108.950711 371.944444,109.905256 378.143519,111.814347 L365.268519,74.1098019 Z" id="Shape" fill="#00C4B3"></path>
                </g>
                <path d="M48.6745,590.3 L86.9695,590.3 C95.6275433,590.3 103.267967,591.872484 109.891,595.0175 C116.514033,598.162516 121.656982,602.657971 125.32,608.504 C128.983018,614.350029 130.8145,621.23196 130.8145,629.15 C130.8145,637.06804 128.983018,643.949971 125.32,649.796 C121.656982,655.642029 116.514033,660.137484 109.891,663.2825 C103.267967,666.427516 95.6275433,668 86.9695,668 L48.6745,668 L48.6745,590.3 Z M85.8595,647.576 C91.4835281,647.576 95.9789832,645.966516 99.346,642.7475 C102.713017,639.528484 104.3965,634.996029 104.3965,629.15 C104.3965,623.303971 102.713017,618.771516 99.346,615.5525 C95.9789832,612.333484 91.4835281,610.724 85.8595,610.724 L74.8705,610.724 L74.8705,647.576 L85.8595,647.576 Z M191.1985,613.3325 C196.822528,618.105524 199.6345,625.44995 199.6345,635.366 L199.6345,668 L176.3245,668 L176.3245,660.008 C173.438486,666.07603 167.703543,669.11 159.1195,669.11 C154.309476,669.11 150.221017,668.277508 146.854,666.6125 C143.486983,664.947492 140.934009,662.690514 139.195,659.8415 C137.455991,656.992486 136.5865,653.792018 136.5865,650.24 C136.5865,644.24597 138.880477,639.695016 143.4685,636.587 C148.056523,633.478984 155.012453,631.925 164.3365,631.925 L174.4375,631.925 C173.623496,627.188976 169.812534,624.821 163.0045,624.821 C160.266486,624.821 157.491514,625.246496 154.6795,626.0975 C151.867486,626.948504 149.46251,628.113993 147.4645,629.594 L139.4725,613.055 C142.950517,610.908989 147.149975,609.225506 152.071,608.0045 C156.992025,606.783494 161.894476,606.173 166.7785,606.173 C177.434553,606.173 185.574472,608.559476 191.1985,613.3325 Z M171.4405,652.571 C172.846507,651.608995 173.882497,650.16601 174.5485,648.242 L174.5485,644.024 L168.3325,644.024 C163.226474,644.024 160.6735,645.725983 160.6735,649.13 C160.6735,650.536007 161.209995,651.701495 162.283,652.6265 C163.356005,653.551505 164.817491,654.014 166.6675,654.014 C168.443509,654.014 170.034493,653.533005 171.4405,652.571 Z M254.0245,606.173 L254.0245,628.373 C252.02649,628.076999 250.176509,627.929 248.4745,627.929 C239.890457,627.929 235.5985,632.294956 235.5985,641.027 L235.5985,668 L210.5125,668 L210.5125,607.283 L234.3775,607.283 L234.3775,613.832 C238.817522,608.725974 245.366457,606.173 254.0245,606.173 Z M307.5265,665.891 C303.752481,668.037011 298.609533,669.11 292.0975,669.11 C283.587457,669.11 277.038523,667.056521 272.4505,662.9495 C267.862477,658.842479 265.5685,652.682041 265.5685,644.468 L265.5685,628.928 L257.2435,628.928 L257.2435,610.613 L265.5685,610.613 L265.5685,593.63 L290.6545,593.63 L290.6545,610.613 L303.0865,610.613 L303.0865,628.928 L290.6545,628.928 L290.6545,644.246 C290.6545,646.096009 291.135495,647.538995 292.0975,648.575 C293.059505,649.611005 294.317492,650.129 295.8715,650.129 C298.017511,650.129 299.904492,649.574006 301.5325,648.464 L307.5265,665.891 Z M373.6825,647.687 L373.6825,668 L311.4115,668 L311.4115,651.905 L339.4945,625.931 C341.936512,623.636989 343.564496,621.676008 344.3785,620.048 C345.192504,618.419992 345.5995,616.829008 345.5995,615.275 C345.5995,613.35099 344.952006,611.852505 343.657,610.7795 C342.361994,609.706495 340.493512,609.17 338.0515,609.17 C335.683488,609.17 333.46351,609.798994 331.3915,611.057 C329.31949,612.315006 327.728506,614.090989 326.6185,616.385 L306.8605,606.506 C309.820515,600.955972 314.149472,596.571516 319.8475,593.3525 C325.545528,590.133484 332.42746,588.524 340.4935,588.524 C346.635531,588.524 352.074476,589.52299 356.8105,591.521 C361.546524,593.51901 365.246487,596.367982 367.9105,600.068 C370.574513,603.768019 371.9065,608.022976 371.9065,612.833 C371.9065,617.125021 371.000009,621.139481 369.187,624.8765 C367.373991,628.613519 363.840526,632.849976 358.5865,637.586 L347.4865,647.687 L373.6825,647.687 Z M387.502,666.8345 C382.580975,664.87349 378.529516,662.006019 375.3475,658.232 L389.4445,641.582 C391.51651,644.172013 393.55149,646.095994 395.5495,647.354 C397.54751,648.612006 399.619489,649.241 401.7655,649.241 C404.503514,649.241 406.593993,648.427008 408.037,646.799 C409.480007,645.170992 410.2015,642.766016 410.2015,639.584 L410.2015,610.058 L383.7835,610.058 L383.7835,590.3 L436.0645,590.3 L436.0645,638.03 C436.0645,648.612053 433.345027,656.548474 427.906,661.8395 C422.466973,667.130526 414.493553,669.776 403.9855,669.776 C397.91747,669.776 392.423025,668.79551 387.502,666.8345 Z M458.209,667.6115 C452.103969,666.168493 447.09052,664.226012 443.1685,661.784 L451.6045,642.692 C455.304519,644.838011 459.448477,646.558494 464.0365,647.8535 C468.624523,649.148506 473.027479,649.796 477.2455,649.796 C480.871518,649.796 483.461492,649.444504 485.0155,648.7415 C486.569508,648.038496 487.3465,646.984007 487.3465,645.578 C487.3465,643.949992 486.32901,642.729004 484.294,641.915 C482.25899,641.100996 478.910523,640.213005 474.2485,639.251 C468.25447,637.992994 463.25952,636.642507 459.2635,635.1995 C455.26748,633.756493 451.789515,631.388516 448.8295,628.0955 C445.869485,624.802484 444.3895,620.344028 444.3895,614.72 C444.3895,609.835976 445.758486,605.39602 448.4965,601.4 C451.234514,597.40398 455.322973,594.259011 460.762,591.965 C466.201027,589.670989 472.805461,588.524 480.5755,588.524 C485.903527,588.524 491.138974,589.097494 496.282,590.2445 C501.425026,591.391506 505.95748,593.074989 509.8795,595.295 L501.9985,614.276 C494.376462,610.427981 487.161534,608.504 480.3535,608.504 C473.619466,608.504 470.2525,610.131984 470.2525,613.388 C470.2525,614.942008 471.25149,616.107496 473.2495,616.8845 C475.24751,617.661504 478.540477,618.493996 483.1285,619.382 C489.04853,620.492006 494.04348,621.768493 498.1135,623.2115 C502.18352,624.654507 505.716985,627.003984 508.714,630.26 C511.711015,633.516016 513.2095,637.955972 513.2095,643.58 C513.2095,648.464024 511.840514,652.88548 509.1025,656.8445 C506.364486,660.80352 502.276027,663.948488 496.837,666.2795 C491.397973,668.610512 484.793539,669.776 477.0235,669.776 C470.585468,669.776 464.314031,669.054507 458.209,667.6115 Z" id="Dart2JS" fill="#231F20"></path>
            </g>
            <path d="M2775.504,844.613 L2742.093,844.613 L2742.093,902 L2716.341,902 L2716.341,824.3 L2775.504,824.3 L2775.504,844.613 Z M2781.8865,899.0585 C2776.52147,896.357486 2772.32202,892.620524 2769.288,887.8475 C2766.25398,883.074476 2764.737,877.65403 2764.737,871.586 C2764.737,865.51797 2766.25398,860.097524 2769.288,855.3245 C2772.32202,850.551476 2776.52147,846.833013 2781.8865,844.169 C2787.25153,841.504987 2793.30097,840.173 2800.035,840.173 C2806.84303,840.173 2812.92947,841.504987 2818.2945,844.169 C2823.65953,846.833013 2827.84049,850.551476 2830.8375,855.3245 C2833.83451,860.097524 2835.333,865.51797 2835.333,871.586 C2835.333,877.65403 2833.83451,883.074476 2830.8375,887.8475 C2827.84049,892.620524 2823.65953,896.357486 2818.2945,899.0585 C2812.92947,901.759514 2806.84303,903.11 2800.035,903.11 C2793.30097,903.11 2787.25153,901.759514 2781.8865,899.0585 Z M2807.139,880.4105 C2808.98901,878.301489 2809.914,875.360019 2809.914,871.586 C2809.914,867.811981 2808.98901,864.88901 2807.139,862.817 C2805.28899,860.74499 2802.92101,859.709 2800.035,859.709 C2797.14899,859.709 2794.78101,860.74499 2792.931,862.817 C2791.08099,864.88901 2790.156,867.811981 2790.156,871.586 C2790.156,875.360019 2791.08099,878.301489 2792.931,880.4105 C2794.78101,882.519511 2797.14899,883.574 2800.035,883.574 C2802.92101,883.574 2805.28899,882.519511 2807.139,880.4105 Z M2898.381,860.819 L2879.844,860.819 L2879.844,902 L2854.869,902 L2854.869,860.819 L2836.332,860.819 L2836.332,841.283 L2898.381,841.283 L2898.381,860.819 Z M2916.5295,899.0585 C2911.16447,896.357486 2906.96502,892.620524 2903.931,887.8475 C2900.89698,883.074476 2899.38,877.65403 2899.38,871.586 C2899.38,865.51797 2900.89698,860.097524 2903.931,855.3245 C2906.96502,850.551476 2911.16447,846.833013 2916.5295,844.169 C2921.89453,841.504987 2927.94397,840.173 2934.678,840.173 C2941.48603,840.173 2947.57247,841.504987 2952.9375,844.169 C2958.30253,846.833013 2962.48349,850.551476 2965.4805,855.3245 C2968.47751,860.097524 2969.976,865.51797 2969.976,871.586 C2969.976,877.65403 2968.47751,883.074476 2965.4805,887.8475 C2962.48349,892.620524 2958.30253,896.357486 2952.9375,899.0585 C2947.57247,901.759514 2941.48603,903.11 2934.678,903.11 C2927.94397,903.11 2921.89453,901.759514 2916.5295,899.0585 Z M2941.782,880.4105 C2943.63201,878.301489 2944.557,875.360019 2944.557,871.586 C2944.557,867.811981 2943.63201,864.88901 2941.782,862.817 C2939.93199,860.74499 2937.56401,859.709 2934.678,859.709 C2931.79199,859.709 2929.42401,860.74499 2927.574,862.817 C2925.72399,864.88901 2924.799,867.811981 2924.799,871.586 C2924.799,875.360019 2925.72399,878.301489 2927.574,880.4105 C2929.42401,882.519511 2931.79199,883.574 2934.678,883.574 C2937.56401,883.574 2939.93199,882.519511 2941.782,880.4105 Z M3039.351,884.24 C3039.351,889.790028 3037.16802,894.137484 3032.802,897.2825 C3028.43598,900.427516 3022.03504,902 3013.599,902 L2977.746,902 L2977.746,841.283 L3011.823,841.283 C3019.96304,841.283 3026.28998,842.670486 3030.804,845.4455 C3035.31802,848.220514 3037.575,852.123975 3037.575,857.156 C3037.575,859.968014 3036.87201,862.483989 3035.466,864.704 C3034.05999,866.924011 3032.02501,868.736993 3029.361,870.143 C3036.02103,872.659013 3039.351,877.357966 3039.351,884.24 Z M2999.724,865.259 L3009.603,865.259 C3013.22902,865.259 3015.042,863.816014 3015.042,860.93 C3015.042,859.523993 3014.6165,858.488003 3013.7655,857.822 C3012.9145,857.155997 3011.52701,856.823 3009.603,856.823 L2999.724,856.823 L2999.724,865.259 Z M3016.818,881.909 C3016.818,879.022986 3015.00502,877.58 3011.379,877.58 L2999.724,877.58 L2999.724,886.46 L3011.379,886.46 C3015.00502,886.46 3016.818,884.943015 3016.818,881.909 Z M3097.848,847.3325 C3103.47203,852.105524 3106.284,859.44995 3106.284,869.366 L3106.284,902 L3082.974,902 L3082.974,894.008 C3080.08799,900.07603 3074.35304,903.11 3065.769,903.11 C3060.95898,903.11 3056.87052,902.277508 3053.5035,900.6125 C3050.13648,898.947492 3047.58351,896.690514 3045.8445,893.8415 C3044.10549,890.992486 3043.236,887.792018 3043.236,884.24 C3043.236,878.24597 3045.52998,873.695016 3050.118,870.587 C3054.70602,867.478984 3061.66195,865.925 3070.986,865.925 L3081.087,865.925 C3080.273,861.188976 3076.46203,858.821 3069.654,858.821 C3066.91599,858.821 3064.14101,859.246496 3061.329,860.0975 C3058.51699,860.948504 3056.11201,862.113993 3054.114,863.594 L3046.122,847.055 C3049.60002,844.908989 3053.79948,843.225506 3058.7205,842.0045 C3063.64152,840.783494 3068.54398,840.173 3073.428,840.173 C3084.08405,840.173 3092.22397,842.559476 3097.848,847.3325 Z M3078.09,886.571 C3079.49601,885.608995 3080.532,884.16601 3081.198,882.242 L3081.198,878.024 L3074.982,878.024 C3069.87597,878.024 3067.323,879.725983 3067.323,883.13 C3067.323,884.536007 3067.85949,885.701495 3068.9325,886.6265 C3070.00551,887.551505 3071.46699,888.014 3073.317,888.014 C3075.09301,888.014 3076.68399,887.533005 3078.09,886.571 Z M3176.658,841.283 L3176.658,902 L3154.458,902 L3154.458,886.571 L3148.353,886.571 L3138.474,902 L3111.945,902 L3125.043,883.019 C3121.19498,881.168991 3118.25351,878.690016 3116.2185,875.582 C3114.18349,872.473984 3113.166,868.848021 3113.166,864.704 C3113.166,857.377963 3115.97797,851.643021 3121.602,847.499 C3127.22603,843.354979 3134.92195,841.283 3144.69,841.283 L3176.658,841.283 Z M3138.807,865.592 C3138.807,867.442009 3139.34349,868.792496 3140.4165,869.6435 C3141.48951,870.494504 3143.09899,870.92 3145.245,870.92 L3154.458,870.92 L3154.458,860.708 L3145.245,860.708 C3140.95298,860.708 3138.807,862.335984 3138.807,865.592 Z M2744.868,1034.114 C2739.42897,1031.44999 2735.17402,1027.71302 2732.103,1022.903 C2729.03198,1018.09298 2727.4965,1012.65403 2727.4965,1006.586 C2727.4965,1000.51797 2729.03198,995.097524 2732.103,990.3245 C2735.17402,985.551476 2739.42897,981.833013 2744.868,979.169 C2750.30703,976.504987 2756.46747,975.173 2763.3495,975.173 C2770.74954,975.173 2777.07647,976.763984 2782.3305,979.946 C2787.58453,983.128016 2791.21049,987.530972 2793.2085,993.155 L2773.7835,1002.701 C2771.41549,997.372973 2767.90052,994.709 2763.2385,994.709 C2760.27849,994.709 2757.81801,995.74499 2755.857,997.817 C2753.89599,999.88901 2752.9155,1002.81198 2752.9155,1006.586 C2752.9155,1010.43402 2753.89599,1013.39399 2755.857,1015.466 C2757.81801,1017.53801 2760.27849,1018.574 2763.2385,1018.574 C2767.90052,1018.574 2771.41549,1015.91003 2773.7835,1010.582 L2793.2085,1020.128 C2791.21049,1025.75203 2787.58453,1030.15498 2782.3305,1033.337 C2777.07647,1036.51902 2770.74954,1038.11 2763.3495,1038.11 C2756.46747,1038.11 2750.30703,1036.77801 2744.868,1034.114 Z M2859.9195,990.269 C2864.87752,995.079024 2867.3565,1001.70196 2867.3565,1010.138 C2867.3565,1015.83603 2865.82102,1020.84948 2862.75,1025.1785 C2859.67898,1029.50752 2855.47953,1032.85599 2850.1515,1035.224 C2844.82347,1037.59201 2838.86653,1038.776 2832.2805,1038.776 C2821.47645,1038.776 2812.76303,1035.55703 2806.14,1029.119 C2799.51697,1022.68097 2796.2055,1012.76507 2796.2055,999.371 C2796.2055,974.136874 2807.45339,959.48502 2829.9495,955.415 L2860.1415,949.976 L2863.4715,970.511 L2837.9415,975.062 C2831.94747,976.098005 2827.63701,977.688989 2825.01,979.835 C2822.38299,981.981011 2820.7735,985.125979 2820.1815,989.27 C2825.36153,985.125979 2831.65146,983.054 2839.0515,983.054 C2848.00554,983.054 2854.96148,985.458976 2859.9195,990.269 Z M2839.329,1017.242 C2840.99401,1015.24399 2841.8265,1012.83901 2841.8265,1010.027 C2841.8265,1006.91898 2840.95701,1004.51401 2839.218,1002.812 C2837.47899,1001.10999 2835.16651,1000.259 2832.2805,1000.259 C2829.32049,1000.259 2826.95251,1001.12849 2825.1765,1002.8675 C2823.40049,1004.60651 2822.5125,1007.02998 2822.5125,1010.138 C2822.5125,1013.09801 2823.41899,1015.52149 2825.232,1017.4085 C2827.04501,1019.29551 2829.39449,1020.239 2832.2805,1020.239 C2835.31452,1020.239 2837.66399,1019.24001 2839.329,1017.242 Z M2888.28,1034.0585 C2882.91497,1031.35749 2878.71552,1027.62052 2875.6815,1022.8475 C2872.64748,1018.07448 2871.1305,1012.65403 2871.1305,1006.586 C2871.1305,1000.51797 2872.64748,995.097524 2875.6815,990.3245 C2878.71552,985.551476 2882.91497,981.833013 2888.28,979.169 C2893.64503,976.504987 2899.69447,975.173 2906.4285,975.173 C2913.23653,975.173 2919.32297,976.504987 2924.688,979.169 C2930.05303,981.833013 2934.23399,985.551476 2937.231,990.3245 C2940.22801,995.097524 2941.7265,1000.51797 2941.7265,1006.586 C2941.7265,1012.65403 2940.22801,1018.07448 2937.231,1022.8475 C2934.23399,1027.62052 2930.05303,1031.35749 2924.688,1034.0585 C2919.32297,1036.75951 2913.23653,1038.11 2906.4285,1038.11 C2899.69447,1038.11 2893.64503,1036.75951 2888.28,1034.0585 Z M2913.5325,1015.4105 C2915.38251,1013.30149 2916.3075,1010.36002 2916.3075,1006.586 C2916.3075,1002.81198 2915.38251,999.88901 2913.5325,997.817 C2911.68249,995.74499 2909.31451,994.709 2906.4285,994.709 C2903.54249,994.709 2901.17451,995.74499 2899.3245,997.817 C2897.47449,999.88901 2896.5495,1002.81198 2896.5495,1006.586 C2896.5495,1010.36002 2897.47449,1013.30149 2899.3245,1015.4105 C2901.17451,1017.51951 2903.54249,1018.574 2906.4285,1018.574 C2909.31451,1018.574 2911.68249,1017.51951 2913.5325,1015.4105 Z M3004.719,979.0025 C3009.19602,981.555513 3012.74799,985.236976 3015.375,990.047 C3018.00201,994.857024 3019.3155,1000.40697 3019.3155,1006.697 C3019.3155,1012.98703 3018.00201,1018.51848 3015.375,1023.2915 C3012.74799,1028.06452 3009.19602,1031.72749 3004.719,1034.2805 C3000.24198,1036.83351 2995.33953,1038.11 2990.0115,1038.11 C2983.27747,1038.11 2978.13452,1036.37102 2974.5825,1032.893 L2974.5825,1058.534 L2949.4965,1058.534 L2949.4965,976.283 L2973.3615,976.283 L2973.3615,981.278 C2976.98752,977.20798 2982.53746,975.173 2990.0115,975.173 C2995.33953,975.173 3000.24198,976.449487 3004.719,979.0025 Z M2991.1215,1015.466 C2992.97151,1013.39399 2993.8965,1010.47102 2993.8965,1006.697 C2993.8965,1002.92298 2992.97151,999.981511 2991.1215,997.8725 C2989.27149,995.763489 2986.90351,994.709 2984.0175,994.709 C2981.13149,994.709 2978.76351,995.763489 2976.9135,997.8725 C2975.06349,999.981511 2974.1385,1002.92298 2974.1385,1006.697 C2974.1385,1010.47102 2975.06349,1013.39399 2976.9135,1015.466 C2978.76351,1017.53801 2981.13149,1018.574 2984.0175,1018.574 C2986.90351,1018.574 2989.27149,1017.53801 2991.1215,1015.466 Z M3057.2775,1016.798 L3052.5045,1016.798 L3052.5045,1037 L3027.4185,1037 L3027.4185,976.283 L3052.5045,976.283 L3052.5045,997.595 L3057.9435,997.595 L3071.2635,976.283 L3097.6815,976.283 L3078.1455,1005.365 L3098.9025,1037 L3069.3765,1037 L3057.2775,1016.798 Z M3153.6255,982.3325 C3159.24953,987.105524 3162.0615,994.44995 3162.0615,1004.366 L3162.0615,1037 L3138.7515,1037 L3138.7515,1029.008 C3135.86549,1035.07603 3130.13054,1038.11 3121.5465,1038.11 C3116.73648,1038.11 3112.64802,1037.27751 3109.281,1035.6125 C3105.91398,1033.94749 3103.36101,1031.69051 3101.622,1028.8415 C3099.88299,1025.99249 3099.0135,1022.79202 3099.0135,1019.24 C3099.0135,1013.24597 3101.30748,1008.69502 3105.8955,1005.587 C3110.48352,1002.47898 3117.43945,1000.925 3126.7635,1000.925 L3136.8645,1000.925 C3136.0505,996.188976 3132.23953,993.821 3125.4315,993.821 C3122.69349,993.821 3119.91851,994.246496 3117.1065,995.0975 C3114.29449,995.948504 3111.88951,997.113993 3109.8915,998.594 L3101.8995,982.055 C3105.37752,979.908989 3109.57698,978.225506 3114.498,977.0045 C3119.41902,975.783494 3124.32148,975.173 3129.2055,975.173 C3139.86155,975.173 3148.00147,977.559476 3153.6255,982.3325 Z M3133.8675,1021.571 C3135.27351,1020.609 3136.3095,1019.16601 3136.9755,1017.242 L3136.9755,1013.024 L3130.7595,1013.024 C3125.65347,1013.024 3123.1005,1014.72598 3123.1005,1018.13 C3123.1005,1019.53601 3123.63699,1020.7015 3124.71,1021.6265 C3125.78301,1022.5515 3127.24449,1023.014 3129.0945,1023.014 C3130.87051,1023.014 3132.46149,1022.533 3133.8675,1021.571 Z" id="Готовая-сборка" fill="#231F20"></path>
            <g id="Group-7" transform="translate(943.000000, 665.000000)" fill="#00A8E1">
                <rect id="Rectangle-2" x="0" y="68" width="194" height="393"></rect>
                <polygon id="Triangle" transform="translate(288.000000, 264.500000) rotate(90.000000) translate(-288.000000, -264.500000) " points="288 170.5 552.5 358.5 23.5 358.5"></polygon>
            </g>
            <g id="Group-9" transform="translate(2165.000000, 665.000000)" fill="#00A8E1">
                <rect id="Rectangle-2-Copy" x="0" y="68" width="194" height="393"></rect>
                <polygon id="Triangle-Copy" transform="translate(288.000000, 264.500000) rotate(90.000000) translate(-288.000000, -264.500000) " points="288 170.5 552.5 358.5 23.5 358.5"></polygon>
            </g>
        </g>
    </g>
</svg>