<?xml version="1.0" encoding="UTF-8"?>
<svg width="980px" height="846px" viewBox="0 0 980 846" version="1.1" xmlns="http://www.w3.org/2000/svg" xmlns:xlink="http://www.w3.org/1999/xlink">
    <!-- Generator: Sketch 42 (36781) - http://www.bohemiancoding.com/sketch -->
    <title>Group</title>
    <desc>Created with Sketch.</desc>
    <defs></defs>
    <g id="Page-1" stroke="none" stroke-width="1" fill="none" fill-rule="evenodd">
        <g id="Group" fill-rule="nonzero">
            <path d="M636.6,581.8 L343.4,581.8 C303,581.8 265.5,605 240.7,644.3 L739.2,644.3 C714.5,605.1 677,581.8 636.6,581.8 Z" id="Shape" fill="#22D3C5"></path>
            <path d="M425.4,299 L429.2,301.9 C464.1,329.3 479.5,338.2 485.9,341.1 C488.4,339.9 490.9,338.7 493.6,337.6 C538.8,312.4 583.6,282.3 611.4,234.7 C572.7,218.8 531.4,210.7 490.1,210.7 C448.7,210.7 407.4,218.8 368.7,234.7 C381.7,258.3 400.7,279.9 425.4,299 Z" id="Shape" fill="#00A8E1"></path>
            <path d="M946.6,760.1 L893.4,644.3 L781.2,400.1 C769.3,374.3 755,351.3 738.7,330.8 C705,380.7 656.8,418.5 598.7,438.1 C566.7,448.9 527.6,454.8 488.8,454.8 C480.4,454.8 472.1,454.5 464.1,453.9 C389.9,448.6 310.8,410.5 257.6,354.3 C251.1,347.4 245.5,339.9 240,332.3 C224.3,352.4 210.3,374.9 198.8,400.1 L86.6,644.3 L33.4,760.2 C20.1,789.2 9.5,817.4 0,845.4 L162.2,845.4 L189.5,740.9 C189.5,705.3 198.4,672.4 213.2,644.4 C240.4,592.8 288.4,558.2 343.5,558.2 L636.7,558.2 C650.4,558.2 663.8,560.4 676.5,564.4 C689.2,568.4 701.2,574.4 712.3,581.9 C723.4,589.5 733.7,598.6 742.9,609.1 C752.1,619.6 760.2,631.5 767,644.4 C781.8,672.5 790.7,705.3 790.7,740.9 L818,845.4 L980,845.4 C970.6,817.4 959.9,789.1 946.6,760.1 Z" id="Shape" fill="#0075C9"></path>
            <path d="M218.3,104.4 C208.7,164.7 214.7,236 243.5,292.6 C245.4,296.3 247.6,299.8 249.6,303.4 C251.6,306.9 253.3,310.6 255.6,313.9 C261.4,322.5 267.7,330.6 274.8,338.1 C323.1,389.1 395.5,425.4 465.8,430.3 C473.2,430.8 480.9,431.1 488.7,431.1 C523,431.1 560.2,426.1 591.1,415.6 C646.6,396.9 692.1,359.9 722.7,312.1 C724.8,308.7 726.9,305.3 729,301.8 C731.1,298.2 733,294.5 734.9,290.7 C741.1,278.6 746.8,266.2 751.1,253.2 C763.8,214.9 769.9,179.2 763.6,139.2 C756.8,96.1 752,51.9 781.9,22.8 C788.1,16.8 795.8,11.4 805.2,6.9 C805.2,6.9 795.4,1.9 774.9,0.7 C764.9,1.1 751.8,1.4 737.2,8.1 C722.9,14.2 705.9,26.2 695.5,45.1 C666,99.2 668.2,165.5 644.1,222.3 C643.9,222.7 643.6,223.1 643.5,223.5 C641.9,227.2 640,230.6 638.2,234.1 C636.5,237.6 634.9,241.2 633,244.6 C603.6,296.4 556.3,329.9 503.8,359.1 C498.8,361 494.6,363.3 490,365.5 C489.2,365.8 488.3,366 487.3,366 C470.8,366 420.6,325.3 411,317.9 C385,297.9 362.7,273.6 347,244.7 C346.2,243.2 345.1,241.8 344.3,240.2 C343.3,238.3 342.7,236.2 341.8,234.2 C340.2,230.6 338.6,227 337.2,223.2 C316,166.3 320,92 284.5,45.1 C274.1,26.1 257,14.2 242.8,8.1 C228.3,1.4 215.3,1.1 205.3,0.8 L203.6,0.8 C194,0.8 183.8,3.5 174.9,6.8 C215,29.5 225.3,60 218.3,104.4 Z" id="Shape" fill="#00C4B3"></path>
        </g>
    </g>
</svg>