<?xml version="1.0" encoding="UTF-8" standalone="no"?>
<!-- Created with Inkscape (http://www.inkscape.org/) -->

<svg
   xmlns:dc="http://purl.org/dc/elements/1.1/"
   xmlns:cc="http://creativecommons.org/ns#"
   xmlns:rdf="http://www.w3.org/1999/02/22-rdf-syntax-ns#"
   xmlns:svg="http://www.w3.org/2000/svg"
   xmlns="http://www.w3.org/2000/svg"
   xmlns:xlink="http://www.w3.org/1999/xlink"
   xmlns:sodipodi="http://sodipodi.sourceforge.net/DTD/sodipodi-0.dtd"
   xmlns:inkscape="http://www.inkscape.org/namespaces/inkscape"
   width="343pt"
   height="340pt"
   id="svg2985"
   version="1.1"
   inkscape:version="0.48.2 r9819"
   sodipodi:docname="samurai-neg.svg">
  <defs
     id="defs2987" />
  <sodipodi:namedview
     pagecolor="#ffffff"
     bordercolor="#666666"
     borderopacity="1.0"
     inkscape:pageopacity="0.0"
     inkscape:pageshadow="2"
     inkscape:zoom="1.1313709"
     inkscape:cx="187.91068"
     inkscape:cy="191.22601"
     inkscape:document-units="pt"
     inkscape:current-layer="layer9"
     id="namedview2989"
     showgrid="false"
     inkscape:window-width="1253"
     inkscape:window-height="760"
     inkscape:window-x="-1"
     inkscape:window-y="2"
     inkscape:window-maximized="0" />
  <metadata
     id="metadata2991">
    <rdf:RDF>
      <cc:Work
         rdf:about="">
        <dc:format>image/svg+xml</dc:format>
        <dc:type
           rdf:resource="http://purl.org/dc/dcmitype/StillImage" />
        <dc:title></dc:title>
      </cc:Work>
    </rdf:RDF>
  </metadata>
  <g
     inkscape:label="Layer 1"
     inkscape:groupmode="layer"
     id="layer1"
     style="opacity:0.65833285;display:none"
     sodipodi:insensitive="true">
    <image
       y="-389.2756"
       x="-66.146332"
       id="image3056"
       xlink:href="file:///Users/kimfager/Documents/x/webpage/dma/res/dmasamurai.jpg"
       height="351.00809"
       width="585.01343"
       transform="matrix(0,1,-1,0,0,0)" />
  </g>
  <g
     inkscape:groupmode="layer"
     id="layer2"
     inkscape:label="fg"
     style="display:inline"
     sodipodi:insensitive="true">
    <path
       style="color:#000000;fill:#ffffff;fill-opacity:1;stroke:none;stroke-width:1px;marker:none;visibility:visible;display:inline;overflow:visible;enable-background:accumulate"
       d="m 260.40403,365.99112 c 0,0 6.76126,7.89102 12.09597,45.18956 40.20308,9.37526 90.38469,-17.25849 100.18306,-28.31456 4.94064,-5.57482 16.08392,-22.58031 10.29679,-31.42656 C 372.731,335.77309 367.3921,326.50338 356.875,321.875 c -6.42655,-2.8282 -11.17417,-2.64515 -11.17417,-2.64515 0,0 -18.40229,-6.06043 -42.1718,-29.63388 12.69068,0.73335 17.46097,4.6902 53.97097,6.65403 1.37563,-1.5717 0.79227,-4.82829 1.10485,-7.68306 -40.788,-1.52894 -53.5265,-10.61831 -59.26776,-10.29679 -1.80154,-4.77222 -3.3632,-32.79304 2.72097,-49.52015 l -5.18306,-7.5 c 0,0 2.09295,-26.49011 -2.5065,-26.58471 2.69258,-17.77227 -5.20534,-20.96478 -7.93544,-20.80155 0.36348,-12.87406 -1.11663,-15.39924 -2.05806,-21.36374 -0.94143,-5.9645 -36.32583,5.36612 -36.32583,5.36612 0,0 1.17794,-7.70483 -1.41572,-8.15966 -0.16298,-1.173 0.0287,-2.17444 0.24155,-2.94195 12.64247,-0.98847 10.25339,-8.97573 10.75282,-9.06412 2.32243,-3.0715 2.13063,-8.41855 2.13063,-8.41855 0,0 9.07927,-9.77606 7.57257,-18.82257 -10.44915,12.29826 -20.78784,6.4085 -28.74675,12.5 0,0 0.26543,-1.7029 0.54809,-1.99117 8.6163,-8.78715 15.87559,-13.25761 13.10876,-23.526595 -1.22475,0.564743 -3.11713,2.959685 -5.32821,3.439125 -0.44331,-7.1993 -3.0949,-12.926686 -9.08145,-14.779028 1.47121,8.201833 -0.31214,11.243565 -2.20646,17.648398 -9.51782,-7.240119 -18.08895,-3.999571 -21.80243,-0.22097 -5.71422,-6.246149 -3.12039,-18.737916 -3.01451,-21.122185 -10.21755,2.843677 -9.79417,11.949809 -10.57301,13.915728 -3.08928,-0.525062 -3.68311,-4.2601 -4.88627,-5.183058 -5.9847,9.368695 8.21765,20.757245 8.83991,24.229855 -11.16991,-6.09606 -18.77067,-10.1896 -22.14796,-23.200826 -3.49665,7.973846 3.49111,23.256066 3.49111,23.256066 0,0 -5.21592,0.0149 -8.12825,-1.08752 -1.0476,-6.92822 -5.3155,-5.23123 -10.08074,-5.25021 -4.76524,-0.019 -9.74438,-0.2547 -9.91601,0.25346 -6.20149,18.3612 -11.18046,20.04418 -18.82257,28.49112 -1.29846,1.4352 -1.1601,3.67742 -1.17417,4.87218 -0.0329,2.79489 4.30124,47.2354 5.34878,70.01733 12.759,5.76718 17.86612,4.77903 17.86612,4.77903 l 1.39515,-7.1718 c 0,0 2.48095,1.25263 5.29679,1.07345 3.47876,12.8581 7.60891,13.64121 10.80806,19.22335 -5.19774,-1.04698 -8.60485,-4.59597 -8.60485,-4.59597 l -8.23224,20.625 3.89515,-1.5468 c 0,0 0.88033,2.72005 6.54679,6.95083 -59.92824,31.53582 -117.153593,91.11939 -118.383879,109.85485 -1.321758,20.12846 26.14376,30.91175 53.744669,33.99962 31.58152,3.5332 49.16261,1.58747 57.02548,12.17455 -5,-28.125 16.61611,-48.89514 16.61611,-48.89514 3.58977,1.0725 4.94227,0.0903 10.88793,-0.21792 19.43021,9.20165 45.67396,8.26597 68.78387,7.0171 z"
       id="path3830"
       inkscape:connector-curvature="0"
       sodipodi:nodetypes="ccsssccccccccczcccccccsccccccccccccsssscccccccccsscccc" />
  </g>
  <g
     inkscape:groupmode="layer"
     id="layer3"
     inkscape:label="fgwhiteskirttrim"
     style="display:inline"
     sodipodi:insensitive="true">
    <path
       style="color:#000000;fill:#000000;fill-opacity:1;stroke:none;stroke-width:0.25;marker:none;visibility:visible;display:inline;overflow:visible;enable-background:accumulate"
       d="m 270.46875,379.375 c 1.50694,4.96756 5.12935,16.28663 6.5625,29.375 5.79844,0.17773 20.19648,5.42108 58.28125,-8.75 40.3125,-15 45.43049,-26.72403 44.375,-40.9375 -1.13574,-15.29416 -21.14094,-22.56424 -53.75,-6.5625 -26.92224,13.21113 -37.5,32.96875 -37.5,40.3125 -8.90625,-7.96875 -17.96875,-13.4375 -17.96875,-13.4375 z"
       id="path3854"
       inkscape:connector-curvature="0"
       sodipodi:nodetypes="ccssscc" />
    <path
       style="color:#000000;fill:#000000;fill-opacity:1;stroke:none;stroke-width:0.25;marker:none;visibility:visible;display:inline;overflow:visible;enable-background:accumulate"
       d="m 65.625,375.3125 c -0.275508,2.44144 8.377517,13.30247 41.71875,16.5625 35.15625,3.4375 44.6875,1.25 52.03125,7.34375 C 159.21875,381.40625 162.96875,375 163.59375,373.125 157.5,370.15625 156.5625,368.59375 156.5625,368.59375 L 146.40625,381.25 c 0,0 0.0947,-9.30789 -1.5625,-12.34375 -2.43136,0.98717 -45.818242,8.96481 -79.21875,6.40625 z"
       id="path3856"
       inkscape:connector-curvature="0"
       sodipodi:nodetypes="cscccccc" />
    <path
       style="color:#000000;fill:#000000;fill-opacity:1;stroke:none;stroke-width:0.25;marker:none;visibility:visible;display:inline;overflow:visible;enable-background:accumulate"
       d="m 366.71875,331.875 c -2.65625,-3.59375 -13.21919,-13.14864 -44.84375,-4.6875 -15.1338,4.04904 -37.03125,19.21875 -43.28125,27.03125 -3.125,-1.25 -21.36342,-3.43111 -51.71875,-29.375 -29.50849,-25.22011 -33.4375,-46.5625 -33.4375,-46.5625 0,0 -2.92952,9.23902 -2.65625,10.46875 0.3125,1.40625 4.0625,18.75 25,40 15.51581,15.74739 38.28125,31.71875 66.40625,36.09375 7.8125,-10.625 21.28758,-20.06809 25.9375,-22.65625 16.5625,-9.21875 36.875,-12.34375 58.59375,-10.3125 z"
       id="path3858"
       inkscape:connector-curvature="0"
       sodipodi:nodetypes="cscscsscsc" />
    <path
       style="color:#000000;fill:#000000;fill-opacity:1;stroke:none;stroke-width:0.25;marker:none;visibility:visible;display:inline;overflow:visible;enable-background:accumulate"
       d="m 202.65625,315.46875 c 0.78125,1.40625 19.375,28.4375 51.40625,42.03125 0,2.8125 0.13593,1.00991 -0.15625,2.96875 -5.60468,-0.22866 -32.5,5 -56.5625,-4.6875 0.46875,-9.375 -1.71875,-12.65625 -5.9375,-23.4375 2.8125,-10.9375 11.25,-16.875 11.25,-16.875 z"
       id="path3862"
       inkscape:connector-curvature="0"
       sodipodi:nodetypes="cccccc" />
    <path
       style="color:#000000;fill:#000000;fill-opacity:1;stroke:none;stroke-width:0.25;marker:none;visibility:visible;display:inline;overflow:visible;enable-background:accumulate"
       d="m 168.90625,309.375 c -8.91447,7.03545 -17.8125,26.09375 -19.0625,40.3125 5.28466,-2.90595 8.10746,-4.58021 13.28125,-6.40625 1.5625,-10 2.1875,-12.8125 9.21875,-25.78125 -0.78125,-1.25 -1.86678,-4.3792 -3.4375,-8.125 z"
       id="path3864"
       inkscape:connector-curvature="0"
       sodipodi:nodetypes="ccccc" />
    <path
       style="color:#000000;fill:#000000;fill-opacity:1;stroke:none;stroke-width:0.25;marker:none;visibility:visible;display:inline;overflow:visible;enable-background:accumulate"
       d="m 175.3125,302.8125 c 0.70313,2.96875 2.74967,7.66287 3.28125,6.875 8.75,-12.96875 13.94876,-32.98715 15.89174,-48.87944 -1.26111,-0.64531 -2.38952,-0.51912 -3.30021,-1.00222 -0.46875,2.5 -1.727,25.70812 -15.87278,43.00666 z"
       id="path3866"
       inkscape:connector-curvature="0"
       sodipodi:nodetypes="ccccc" />
    <path
       style="color:#000000;fill:#000000;fill-opacity:1;stroke:none;stroke-width:0.25;marker:none;visibility:visible;display:inline;overflow:visible;enable-background:accumulate"
       d="m 182.74291,357.16194 c 2.38275,0.39401 12.50059,0.53893 12.81631,-2.32019 0.56684,-5.13318 -1.67915,-15.264 -10.38563,-31.59884 -2.36244,-4.43235 -5.43436,-7.88589 -9.28078,-14.14213 -3.58753,-5.83515 -3.7565,-14.08689 -3.86699,-26.01932 -1.33793,1.4176 -5.80048,3.7565 -7.89971,5.74525 0.7734,6.07669 2.42531,11.94801 7.78923,23.58863 5.2159,11.31941 6.73961,15.79942 8.2864,20.43981 0.77339,2.32019 5.41379,14.91553 2.54117,24.30679 z"
       id="path3868"
       inkscape:connector-curvature="0"
       sodipodi:nodetypes="csssccssc" />
    <path
       style="color:#000000;fill:#000000;fill-opacity:1;stroke:none;stroke-width:0.25;marker:none;visibility:visible;display:inline;overflow:visible;enable-background:accumulate"
       d="m 179.59407,251.92457 -0.0552,2.92786 c -4.00629,5.87496 -4.69564,11.93243 -5.35855,14.25262 -4.08796,3.64602 -5.77284,6.32878 -9.66748,9.33602 -1.43631,-0.88388 1.21534,-9.33602 5.41379,-16.51757 3.12464,-5.34478 8.34165,-10.16467 9.66747,-9.99893 z"
       id="path3870"
       inkscape:connector-curvature="0"
       sodipodi:nodetypes="ccccsc" />
    <path
       style="color:#000000;fill:#000000;fill-opacity:1;stroke:none;stroke-width:0.25;marker:none;visibility:visible;display:inline;overflow:visible;enable-background:accumulate"
       d="m 185.11835,263.74651 c -0.33146,-0.82864 -1.76778,-1.87826 -3.97748,-1.60204 -2.31405,4.2658 -7.74828,9.3571 -10.33039,11.87718 -6.14799,6.0003 -5.94742,5.05624 -8.72835,6.40816 -5.9129,2.87448 -13.84029,9.14594 -20.0531,15.35747 -6.21282,6.21152 -8.06487,8.28899 -11.71146,13.64496 -6.62224,9.72646 -10.55136,14.58407 -16.73854,29.61009 -13.25826,-14.58408 -37.730779,-8.72834 -39.332818,-0.88388 17.67767,-4.19845 34.029518,-0.71816 44.636118,13.25825 1.22291,-12.77322 25.42986,-44.5591 30.05204,-49.49747 21.64199,-23.12245 17.44131,-12.24065 31.10164,-28.17379 1.27816,-1.49081 4.03272,-5.74525 5.08234,-9.99893 z"
       id="path3872"
       inkscape:connector-curvature="0"
       sodipodi:nodetypes="ccsszscccssc" />
  </g>
  <g
     inkscape:groupmode="layer"
     id="layer4"
     inkscape:label="fgwhiteskirttopobi"
     style="display:inline"
     sodipodi:insensitive="true">
    <path
       style="color:#000000;fill:#000000;fill-opacity:1;stroke:none;stroke-width:0.25;marker:none;visibility:visible;display:inline;overflow:visible;enable-background:accumulate"
       d="m 79.6875,327.5 c 7.138824,-9.40629 31.3014,-30.15786 39.84375,-37.1875 15,-12.34375 42.96875,-31.5625 51.71875,-33.4375 -7.1875,9.53125 -8.28125,16.875 -8.75,19.53125 -27.8125,11.40625 -47.65625,50.46875 -50.3125,54.53125 -17.96875,-12.03125 -32.5,-3.4375 -32.5,-3.4375 z"
       id="path3875"
       inkscape:connector-curvature="0"
       sodipodi:nodetypes="cscccc" />
    <path
       style="color:#000000;fill:#000000;fill-opacity:1;stroke:none;stroke-width:0.25;marker:none;visibility:visible;display:inline;overflow:visible;enable-background:accumulate"
       d="m 167.28851,246.95868 c 0.58086,1.04866 3.84938,2.23001 4.94475,4.66854 1.37608,0.17434 2.02206,0.26901 2.62945,-1.27843 1.45808,-3.71477 1.81429,-7.8233 6.07479,-15.16411 2.15336,-3.71021 -2.01545,-2.33556 -3.39336,-2.54901 -1.37791,-0.21346 -2.27903,-1.42196 -2.85664,-1.38567 -1.43772,0.0903 -2.72097,1.53407 -2.55524,2.93246 0.0736,0.62066 1.71875,0.524 1.71875,0.524 0,0 0.33263,1.14033 -1.22319,2.54576 -4.74571,4.28696 -4.87056,6.50333 -5.33931,9.70646 z"
       id="path3877"
       inkscape:connector-curvature="0"
       sodipodi:nodetypes="ccsszsscsc" />
    <path
       style="color:#000000;fill:#000000;fill-opacity:1;stroke:none;stroke-width:0.25;marker:none;visibility:visible;display:inline;overflow:visible;enable-background:accumulate"
       d="m 195.55922,262.36544 c 17.56785,1.58195 36.81049,1.10887 51.26524,0.88388 0.79525,2.61166 -1.29666,1.67761 -6.51863,9.1703 6.00189,6.43658 10.16465,13.47922 12.26387,21.54465 3.55955,13.67614 3.20408,21.87612 2.09922,24.52777 14.04461,-1.28914 22.53639,-1.26212 29.6101,-0.7734 3.44296,-10.64924 8.50738,-20.77125 16.46233,-27.73184 19.22447,18.2301 34.36097,26.07456 40.99009,29.05767 -27.95869,-1.40234 -60.10407,23.5334 -65.07591,30.05203 -24.08582,-7.07106 -49.09211,-28.4613 -55.46369,-34.91339 -15.97338,-16.1752 -23.90935,-37.69902 -25.41165,-44.41515 0,-4.41941 -0.22097,-7.40252 -0.22097,-7.40252 z"
       id="path3879"
       inkscape:connector-curvature="0"
       sodipodi:nodetypes="cccscccccscc" />
    <path
       style="color:#000000;fill:#000000;fill-opacity:1;stroke:none;stroke-width:0.25;marker:none;visibility:visible;display:inline;overflow:visible;enable-background:accumulate"
       d="m 199.09476,248.99671 c -0.56875,0.97992 0.66376,4.97439 0.88388,5.63475 18.98212,1.75315 39.91448,1.07871 47.95067,-0.11048 1.65729,4.86135 0.33146,4.75086 0.22098,6.40815 -1.65728,0.55243 -48.85446,0.53348 -52.70156,-0.88388 -2.09922,-0.7734 -6.48014,-0.20964 -6.51864,-5.41379 -0.0223,-3.01558 1.7423,-4.02982 3.75651,-4.86136 3.59421,-1.48383 6.40816,-0.77339 6.40816,-0.77339 z"
       id="path3881"
       inkscape:connector-curvature="0"
       sodipodi:nodetypes="ccccsssc" />
  </g>
  <g
     inkscape:groupmode="layer"
     id="layer5"
     inkscape:label="fgwhitetoppart1"
     style="display:inline"
     sodipodi:insensitive="true">
    <path
       style="color:#000000;fill:#000000;fill-opacity:1;stroke:none;stroke-width:0.25;marker:none;visibility:visible;display:inline;overflow:visible;enable-background:accumulate"
       d="m 244.91939,272.65954 c 6.77496,9.25401 13.3601,19.74581 13.61652,42.076 9.8332,-0.99437 16.6833,-1.65728 22.53903,-1.21534 1.10485,-9.94369 12.70583,-24.85922 17.89864,-27.95282 -7.48104,-25.9486 -0.89174,-51.37437 -0.44194,-56.78951 -4.70646,-7.29013 -10.57194,-12.54363 -13.12881,-20.68758 -1.93187,0.60604 -9.54938,6.45757 -15.98248,5.79101 -6.61937,26.61936 -9.15055,44.2895 -24.50096,58.77824 z"
       id="path3843"
       inkscape:connector-curvature="0"
       sodipodi:nodetypes="cccccccc" />
    <path
       style="color:#000000;fill:#000000;fill-opacity:1;stroke:none;stroke-width:0.25;marker:none;visibility:visible;display:inline;overflow:visible;enable-background:accumulate"
       d="m 280.96445,161.0503 c -1.10485,4.41942 -2.43068,7.07107 -2.76213,12.04291 -0.28014,4.20219 1.21534,5.52427 3.64602,6.18719 2.43068,0.66291 2.65165,-0.33146 4.19844,0.99437 1.5468,1.32583 0.99437,4.86136 0.88389,6.51864 -0.11049,1.65728 -0.7734,7.18155 0,8.50738 0.7734,1.32582 1.65728,1.98873 2.54116,1.87825 0.88389,-0.11049 -0.83887,1.24508 0.44194,3.97747 1.65728,3.53554 2.59925,5.92037 1.76777,5.19282 -0.88388,-0.7734 -1.98874,-1.98874 -1.87825,0.66291 0.11077,2.65853 1.65728,4.97184 2.32019,4.86136 0.66292,-0.11049 1.32583,0.11049 1.76777,-4.86135 0.44194,-4.97185 0.55242,-8.17593 -0.11049,-8.06544 -1.20375,0.20063 -2.76213,0.88388 -2.65165,0 0.11049,-0.88389 1.47537,-10.17229 -0.66291,-17.01476 -1.65728,-5.3033 -2.84458,-3.59843 -5.74524,-5.08233 -2.37905,-1.21706 -3.42505,-2.43068 -2.87262,-9.61223 0.50254,-6.53296 2.53429,-7.17753 1.98873,-9.39126 -0.36728,-1.49033 -1.32582,-1.5468 -2.32019,-0.11049 -1.2146,1.75442 -0.22097,2.32019 -0.55243,3.31456 z"
       id="path3845"
       inkscape:connector-curvature="0"
       sodipodi:nodetypes="cssssssssscssssssssc" />
    <path
       style="color:#000000;fill:#000000;fill-opacity:1;stroke:none;stroke-width:0.25;marker:none;visibility:visible;display:inline;overflow:visible;enable-background:accumulate"
       d="m 281.55301,201.43307 c -0.46875,-0.625 -1.55302,1.00222 -3.89677,1.00222 -2.34375,0 -3.17076,-2.05806 -4.09879,-3.28125 -0.81241,-1.07081 -3.59554,-1.72311 -7.84093,4.63226 -4.34357,6.50233 -2.79309,10.29312 -2.59153,12.61995 0.0234,0.27055 2.86086,1.77302 3.6758,-3.75 0.53724,-3.64098 4.49655,-3.30245 8.35545,-3.75 2.38898,-0.27707 6.18528,-5.11048 6.39677,-7.47318 z"
       id="path3847"
       inkscape:connector-curvature="0"
       sodipodi:nodetypes="cssssssc" />
    <path
       style="color:#000000;fill:#000000;fill-opacity:1;stroke:none;stroke-width:0.25;marker:none;visibility:visible;display:inline;overflow:visible;enable-background:accumulate"
       d="m 251.35436,199.60972 c 0.27621,-3.53554 0.99436,-10.44087 4.25369,-14.41835 0.67351,-0.82191 3.58883,-5.92618 5.85573,-7.51301 2.2097,-1.5468 4.57356,-2.35341 8.83883,-1.76777 3.48294,0.47823 5.3033,2.3202 5.85573,3.0936 0.55242,0.77339 0.49718,2.76213 -0.27622,2.76213 -0.77339,0 -4.08796,-1.54679 -8.6731,0.22097 -4.68035,1.80447 -7.29204,5.13757 -8.12068,5.74524 -0.82864,0.60767 -2.26495,2.3202 -1.60204,3.14884 0.89059,1.11324 3.03835,2.81738 3.42505,1.54679 0.3867,-1.27058 -0.60768,-2.87262 3.7565,-5.3033 4.36417,-2.43068 7.2368,-1.71252 10.10942,-1.43631 2.5964,-0.0553 2.74255,1.4894 1.76777,2.65165 -1.43631,1.71253 -1.10949,2.55777 2.09922,3.81175 4.80611,1.87826 5.46036,3.97902 7.07107,5.41379 2.65891,2.36848 3.42505,4.25369 3.09359,5.41378 -0.33145,1.1601 -1.9335,-0.0552 -3.14884,-0.49723 -1.21533,-0.44195 -2.15446,0.0552 -2.70689,-0.22098 -0.55243,-0.27621 -0.22097,-0.93912 -0.93912,-2.04397 -0.71816,-1.10486 -5.91098,-5.3033 -11.60097,-5.74524 -5.69,-0.44195 -9.557,4.41941 -11.32476,5.85572 -1.76777,1.43631 -4.03272,3.09359 -6.0767,2.48592 -1.51724,-0.45107 -1.82301,-2.76213 -1.65728,-3.20407 z"
       id="path3849"
       inkscape:connector-curvature="0"
       sodipodi:nodetypes="csssssssssscssssccsssscc" />
    <path
       style="color:#000000;fill:#000000;fill-opacity:1;stroke:none;stroke-width:0.25;marker:none;visibility:visible;display:inline;overflow:visible;enable-background:accumulate"
       d="m 250.39062,220.3125 c -1.42686,-0.22238 -7.43276,-3.61799 -8.59375,-12.10937 -1.64491,-12.03066 5.16366,-21.70053 6.875,-24.92187 2.65625,-5 9.20098,-12.9449 19.92187,-20.78125 1.08514,-0.79317 0.76174,-4.10562 -0.3125,-3.59375 -8.38378,3.99483 -17.29231,13.84149 -20.15625,18.59375 -7.10937,11.79687 -8.75,20.625 -8.75,23.28125 0,2.65625 -0.37707,8.62673 0.0781,10.39062 0.63424,2.45767 3.04688,7.42187 4.92188,8.67187 1.875,1.25 3.90625,2.65625 5.15625,2.65625 0.85938,0 2.65625,-1.17187 0.85938,-2.1875 z"
       id="path3851"
       inkscape:connector-curvature="0"
       sodipodi:nodetypes="csssssssssc" />
    <path
       style="color:#000000;fill:#000000;fill-opacity:1;stroke:none;stroke-width:0.25;marker:none;visibility:visible;display:inline;overflow:visible;enable-background:accumulate"
       d="m 158.05243,214.52016 c -1.43631,-4.98653 -14.15285,-66.31531 -12.87457,-68.05394 8.04651,-10.94427 16.17352,-25.32127 18.34058,-29.16814 0.67402,-1.19649 6.05608,-2.25842 11.26951,-0.55244 3.91947,1.28256 0.44195,-6.85009 -2.43067,-6.62912 -5.50801,0.42369 -13.13282,-0.82546 -13.81069,0.88388 -1.80436,4.54999 -2.7092,9.20623 -6.73961,14.91553 -3.95092,5.5967 -12.54568,10.48557 -12.37436,16.0204 0.24901,8.04482 4.36523,56.6778 5.19281,66.18077 0.40453,4.64511 1.43631,3.20407 4.30893,4.5299 3.95201,1.82401 7.96098,3.52534 9.11807,1.87316 z"
       id="path3853"
       inkscape:connector-curvature="0"
       sodipodi:nodetypes="csssssssssc" />
    <path
       style="color:#000000;fill:#000000;fill-opacity:1;stroke:none;stroke-width:0.25;marker:none;visibility:visible;display:inline;overflow:visible;enable-background:accumulate"
       d="m 173.6831,117.40855 0.22097,2.87263 c 0,0 -4.24793,1.11336 -5.85573,4.5299 -1.76777,3.7565 0.98573,7.24357 0.22098,8.28641 -1.21534,1.65728 -3.867,4.30893 -4.41943,4.86135 -0.55242,0.55243 -1.65728,-0.44193 -2.32019,0.44195 -0.66291,0.88388 -2.09922,9.17029 -5.19282,12.37437 -1.63156,1.68983 -4.23818,1.49908 -5.19281,0.22096 -0.77066,-1.03179 -2.08083,-3.64292 1.76777,-6.85008 5.3033,-4.41943 8.94932,-8.94933 10.6066,-11.26952 1.65728,-2.3202 1.21534,-6.8501 1.65728,-8.06544 0.44194,-1.21534 0.11048,-2.43067 3.97748,-4.97184 4.0721,-2.67594 2.65165,-2.20972 4.5299,-2.43069 z"
       id="path3855"
       inkscape:connector-curvature="0"
       sodipodi:nodetypes="ccsscsssssssc" />
    <path
       style="color:#000000;fill:#000000;fill-opacity:1;stroke:none;stroke-width:0.25;marker:none;visibility:visible;display:inline;overflow:visible;enable-background:accumulate"
       d="m 179.64931,116.41419 c 0,0 5.74524,-0.22097 6.18719,0.33145 0.44194,0.55243 4.75087,5.52428 4.41941,6.96059 -0.33145,1.43631 0.11049,1.76776 -1.76776,1.65728 -1.87826,-0.11049 -3.61277,-0.80815 -3.42505,-3.53554 0.18428,-2.67734 -2.78262,-2.38238 -4.76428,-3.00876 -1.0077,-0.31852 -1.20193,-1.52114 -0.64951,-2.40502 z"
       id="path3857"
       inkscape:connector-curvature="0"
       sodipodi:nodetypes="ccssssc" />
    <path
       style="color:#000000;fill:#000000;fill-opacity:1;stroke:none;stroke-width:0.25;marker:none;visibility:visible;display:inline;overflow:visible;enable-background:accumulate"
       d="m 165.75444,174.25667 c 0.15625,-10.15625 -0.9375,-19.67017 2.37056,-25.50666 3.39788,-5.99498 9.15068,-11.08485 12.1875,-12.8125 4.00888,-2.28066 6.35715,-2.04687 9.15403,-0.76229 2.48104,1.13951 3.18972,-0.625 1.97601,-2.05021 -0.934,-1.09675 -4.74112,-2.53629 -6.6998,-2.53629 -2.34537,0 -9.27399,3.31754 -12.08649,5.50504 -2.8125,2.1875 -6.40625,0.9375 -6.40625,0.9375 l -1.5625,1.875 c 0,0 3.33978,0.21991 1.59879,2.55524 -2.40144,3.22123 -4.26535,6.56836 -4.25504,11.74556 0.004,2.10999 -2.06726,0.16215 -2.03125,1.51674 0.45753,17.20853 -2.22125,34.38659 0.9375,49.96371 0.75758,3.73594 1.62774,4.06736 3.03347,4.22822 1.84819,0.21149 3.13448,1.26733 2.74778,-2.50947 -0.4297,-4.19681 -0.96431,-26.52459 -0.96431,-32.14959 z"
       id="path3859"
       inkscape:connector-curvature="0"
       sodipodi:nodetypes="cssssssccssssssc" />
    <path
       style="color:#000000;fill:#000000;fill-opacity:1;fill-rule:nonzero;stroke:none;stroke-width:0.25;marker:none;visibility:visible;display:inline;overflow:visible;enable-background:accumulate"
       d="m 169.20844,174.97147 c -0.22097,1.43631 -0.71815,3.31456 0.16573,3.59077 0.88388,0.27622 1.43631,0.44194 1.54679,-1.82301 0.089,-1.82419 -0.66291,-2.48592 -0.71815,-2.9831 -0.0552,-0.49719 -0.7734,0.3867 -0.99437,1.21534 z"
       id="path3861"
       inkscape:connector-curvature="0"
       sodipodi:nodetypes="csscc" />
    <path
       style="color:#000000;fill:#000000;fill-opacity:1;stroke:none;stroke-width:0.25;marker:none;visibility:visible;display:inline;overflow:visible;enable-background:accumulate"
       d="m 171.09375,168.28125 c 7.31081,-10.0342 17.10938,-22.03125 22.65624,-29.37499 0.7,-0.92676 -0.78122,-2.26563 -0.78122,-2.26563 -6.54764,7.23888 -13.87617,10.2896 -17.73437,14.76562 -3.46552,4.02046 -3.29808,3.56372 -3.4375,6.64063 -0.16055,3.5431 -0.22801,2.99997 -0.62501,4.53125 -0.54687,2.10938 -0.70312,4.6875 -0.70312,4.6875 z"
       id="path3863"
       inkscape:connector-curvature="0"
       sodipodi:nodetypes="cscssscc" />
  </g>
  <g
     inkscape:groupmode="layer"
     id="layer6"
     inkscape:label="fgblacksleeve"
     style="display:inline"
     sodipodi:insensitive="true">
    <path
       style="color:#000000;fill:#ffffff;fill-opacity:1;stroke:none;stroke-width:0.25;marker:none;visibility:visible;display:inline;overflow:visible;enable-background:accumulate"
       d="m 254.45312,272.5 c 0,0 4.46849,13.39525 5.07812,21.95312 0.44534,6.25172 1.95312,11.71875 6.48437,13.75 4.53125,2.03125 8.19826,1.07035 9.14063,0.23438 4.84375,-4.29687 2.42187,-4.0625 6.09375,-8.75 5.10764,-6.52039 7.1875,-11.79688 12.03125,-14.375 -1.5625,-8.4375 -2.1875,-15.15625 -2.03125,-22.8125 0.15625,-7.65625 -1.67901,-16.46586 3.59375,-24.375 0.625,-0.9375 -3.90625,-4.375 -5,-6.875 -1.09375,-2.5 -3.72826,-5.26408 -4.21875,-15.15625 -0.0979,-1.97519 -0.23438,-3.90625 -0.23438,-3.90625 0,0 -7.99836,0.86843 -13.125,8.98437 -2.44516,3.87093 -3.74999,24.84376 -7.10937,33.04688 -3.15177,7.69619 -5,12.65625 -10.70312,18.28125 z"
       id="path3867"
       inkscape:connector-curvature="0"
       sodipodi:nodetypes="csssscsssscssc" />
    <path
       style="color:#000000;fill:#000000;fill-opacity:1;stroke:none;stroke-width:0.25;marker:none;visibility:visible;display:inline;overflow:visible;enable-background:accumulate"
       d="m 349.24446,289.65534 c 3.01095,-0.005 4.63687,0.005 8.11825,-0.0783 0.23983,2.32295 -0.29787,3.84537 -0.53347,5.42299 -1.26655,0.35063 -5.42758,0.60372 -7.1875,0.15625 -1.11785,-1.30301 -1.17112,-3.68736 -0.39728,-5.50094 z"
       id="path3884"
       inkscape:connector-curvature="0"
       sodipodi:nodetypes="ccccc" />
  </g>
  <g
     inkscape:groupmode="layer"
     id="layer7"
     inkscape:label="fgwhitetoppart2sleeve"
     style="display:inline"
     sodipodi:insensitive="true">
    <path
       style="color:#000000;fill:#000000;fill-opacity:1;stroke:none;stroke-width:0.25;marker:none;visibility:visible;display:inline;overflow:visible;enable-background:accumulate"
       d="m 261.64062,297.73438 c 0.39062,2.65625 0.625,7.03125 4.0625,8.59375 3.4375,1.5625 5.3125,2.10937 7.42187,1.64062 2.10938,-0.46875 4.21875,-5.15625 4.92188,-6.32813 0.70312,-1.17187 1.64063,-2.26562 1.5625,-3.74999 -0.0339,-0.64334 -4.98544,1.01561 -10.23438,1.01562 -4.29687,0 -2.03125,-4.21874 0.23438,-3.75 1.79687,-0.0781 10.39062,-0.70313 11.64062,-0.625 1.25,0.0781 2.5,0.46875 3.28125,-2.1875 0.78125,-2.65625 -0.86159,-1.85391 -6.64062,-1.64062 -5.23606,0.19325 -7.34375,0.78125 -10.00001,0.62499 -1.98836,-0.11696 -1.40624,-2.73437 1e-5,-3.12499 1.40625,-0.39063 7.26562,-1.71875 12.73437,-2.03125 5.46875,-0.3125 7.5,0.54687 8.90625,-0.15625 1.40625,-0.70313 2.10938,-1.09375 2.03125,-2.8125 -0.0781,-1.71875 -0.46875,-2.34375 -2.57812,-2.57813 -2.10938,-0.23437 -10.85938,2.5 -11.79688,2.5 -0.9375,0 -3.125,0.23438 -3.75,-0.23437 -0.625,-0.46875 -0.54687,-1.25 -1.32812,-1.40625 -0.78125,-0.15625 -4.84375,-0.85938 -5.70312,0.0781 -1.18633,1.29418 -0.23438,2.34375 0.85937,3.20312 1.09375,0.85938 -0.48464,1.19741 -1.48438,0.93751 -2.5361,-0.6593 -4.29687,-1.25 -5.39062,-0.46875 -0.49652,0.35465 -1.17188,2e-5 0,4.45312 1.17187,4.45313 0.78125,6.17188 1.25,8.04688 z"
       id="path3871"
       inkscape:connector-curvature="0"
       sodipodi:nodetypes="csssssccsssssscsssssssssc" />
    <path
       style="color:#000000;fill:#000000;fill-opacity:1;stroke:none;stroke-width:0.25;marker:none;visibility:visible;display:inline;overflow:visible;enable-background:accumulate"
       d="m 213.8998,252.42175 c 6.62912,0.22097 35.68679,-1.32582 37.23359,-0.44194 1.5468,0.88388 0.77339,2.20971 2.32019,2.20971 1.5468,0 3.97748,-1.98874 5.08233,-6.85009 1.10486,-4.86136 3.53553,-13.47923 3.09359,-16.35185 -0.44194,-2.87262 -13.17702,-4.41838 -17.89864,-7.51301 -2.84665,-1.86574 -9.23755,-11.81943 -8.83883,-20.99223 0.51419,-11.82934 7.29204,-23.20194 9.94369,-26.73747 2.65165,-3.53554 10.6066,-13.7002 20.55029,-19.0035 0.44194,-1.43631 0.55242,-2.3202 0.55242,-2.3202 0,0 -14.05532,1.55542 -20.32932,8.94933 -3.38541,3.98971 -5.86885,10.32465 -7.40252,19.33495 -0.11725,0.68886 -9.72272,-0.11049 -9.72272,-0.11049 -1.39066,3.05946 -5.97356,10.07033 -8.83883,13.36873 -2.87644,3.31126 -13.47922,15.79943 -15.02602,18.45108 -1.5468,2.65165 -4.41944,3.75651 -1.32583,8.17592 0.77341,1.10486 1.76777,2.20971 1.76777,2.20971 0,0 -9.39126,7.73398 -12.26388,12.1534 -2.87262,4.41941 -4.30893,6.62912 -2.3202,7.513 1.98874,0.88389 6.51865,2.54117 6.8501,1.5468 0.57622,-1.72867 -0.17476,-3.7393 0.88388,-6.29766 1.32583,-3.20408 6.30362,-9.95471 9.28078,-12.9268 3.72458,-3.71824 6.22031,-1.11219 4.75087,0.99437 -1.58025,2.26542 -6.51864,4.97184 -8.61786,10.93805 -3.32311,9.44464 -1.76777,13.14776 -1.76777,13.14776 l 6.29767,0.11049 c -0.8065,-3.00501 -2.68503,-7.31155 1.10486,-15.9099 3.33024,-7.55552 7.09042,1.18786 5.74524,2.43068 -1.8945,1.75034 -3.7565,2.98311 -3.31456,6.73962 0.65367,5.55621 1.32582,5.08233 2.20971,7.18154 z"
       id="path3873"
       inkscape:connector-curvature="0"
       sodipodi:nodetypes="csssssssccsscssscsssssssccsssc" />
    <path
       style="color:#000000;fill:#000000;fill-opacity:1;stroke:none;stroke-width:0.25;marker:none;visibility:visible;display:inline;overflow:visible;enable-background:accumulate"
       d="m 245.94057,153.53729 c -7.73398,11.93243 -13.14776,18.2301 -13.03728,19.88738 0.11049,1.65728 0.55243,2.09922 2.20971,2.65165 1.65728,0.55243 2.87262,1.65728 2.87262,1.10486 0,-0.55243 0.55243,-4.30894 1.65728,-6.40816 1.10486,-2.09922 2.09923,-4.86136 3.86699,-6.8501 1.76777,-1.98873 2.43068,-3.7565 2.65165,-4.97184 0.22097,-1.21534 1.21534,-4.19845 0.55243,-4.86136 -0.66291,-0.66291 -0.7734,-0.55243 -0.7734,-0.55243 z"
       id="path3876"
       inkscape:connector-curvature="0"
       sodipodi:nodetypes="csssssssc" />
    <path
       style="color:#000000;fill:#000000;fill-opacity:1;stroke:none;stroke-width:0.25;marker:none;visibility:visible;display:inline;overflow:visible;enable-background:accumulate"
       d="m 189.81397,181.04817 c 0,0 -1.49799,28.13779 1.21534,34.58194 0.88388,2.09922 1.86388,-0.3166 2.76214,-1.10486 5.41378,-4.75088 23.5334,-24.9697 27.95281,-29.83106 0.635,-0.6985 0.11049,-2.09923 0.11049,-2.09923 0,0 -6.12757,0.70219 -6.62913,0 -1.10485,-1.5468 0.7734,-10.49611 -2.76214,-9.61223 -1.25,0.3125 -8.83883,-3.86699 -10.82757,-5.41379 -1.98873,-1.54679 -0.91486,13.412 0.88389,19.88738 0.55243,1.98873 -2.76214,-8.28641 -12.70583,-6.40815 z"
       id="path3878"
       inkscape:connector-curvature="0"
       sodipodi:nodetypes="cssscssssc" />
    <path
       style="color:#000000;fill:#000000;fill-opacity:1;stroke:none;stroke-width:0.25;marker:none;visibility:visible;display:inline;overflow:visible;enable-background:accumulate"
       d="m 196.00116,142.70972 c -3.31457,9.05981 -4.52986,10.4815 -5.41379,34.36097 -0.0327,0.88328 1.98874,0.55243 2.76214,0.55243 0.77339,0 2.54116,2.20971 3.20407,0.66291 0.66292,-1.5468 -1.57818,-14.66452 -1.21534,-17.56718 0.22097,-1.76777 -1.21534,-0.88389 -1.21534,-1.43631 0,-0.55243 0.66292,-5.08233 1.10486,-5.63476 0.3451,-0.43137 1.25878,1.44855 1.76776,-0.44194 0.7734,-2.87263 1.41276,-4.6938 4.19845,-8.17592 1.76777,-2.20972 -1.65728,-2.76214 -2.54116,-2.76214 -0.88389,0 -2.65165,0.44194 -2.65165,0.44194 z"
       id="path3880"
       inkscape:connector-curvature="0"
       sodipodi:nodetypes="csssssssssc" />
    <path
       style="color:#000000;fill:#000000;fill-opacity:1;stroke:none;stroke-width:0.25;marker:none;visibility:visible;display:inline;overflow:visible;enable-background:accumulate"
       d="m 196.4431,155.85749 -0.7734,3.20408 c 0,0 16.24136,9.28077 16.79379,9.8332 0.55242,0.55243 1.65728,1.65728 3.97747,1.32582 2.3202,-0.33145 6.8501,0.22098 7.6235,-0.77339 0.7734,-0.99437 0.22097,-2.76214 0.22097,-2.76214 0,0 -6.28595,0.27582 -7.73398,0 -2.32019,-0.44195 -16.35185,-8.2864 -20.10835,-10.82757 z"
       id="path3882"
       inkscape:connector-curvature="0"
       sodipodi:nodetypes="ccssscsc" />
    <path
       style="color:#000000;fill:#000000;fill-opacity:1;stroke:none;stroke-width:0.25;marker:none;visibility:visible;display:inline;overflow:visible;enable-background:accumulate"
       d="m 220.19747,171.32545 c 0,0 -2.76214,4.08796 -1.5468,5.63476 1.21534,1.5468 1.87826,1.4363 2.87263,-1e-5 0.99436,-1.43631 2.92079,-4.51916 3.7565,-4.97184 2.65164,-1.43631 5.19281,-5.96621 7.62349,-9.39126 2.43068,-3.42505 4.5121,-6.64393 4.30893,-9.28078 -0.24978,-3.24174 -1.98874,-2.54116 -2.65165,-1.43631 -1.04353,1.7392 -2.65165,4.97185 -3.31456,4.97185 -0.66291,0 -7.36754,-0.41372 -9.39127,-0.11049 -1.61158,0.24147 0.7734,2.87262 2.09923,2.87262 1.32582,0 5.08233,-0.22097 5.08233,-0.22097 0,0 -5.52427,4.64039 -4.19845,5.63476 1.32583,0.99437 3.42505,0.44194 3.42505,0.44194 0,0 -3.53553,4.97184 -4.08796,5.3033 -0.55243,0.33146 -0.33146,0.88389 -3.97747,0.55243 z"
       id="path3885"
       inkscape:connector-curvature="0"
       sodipodi:nodetypes="cssssssssscscsc" />
    <path
       style="color:#000000;fill:#000000;fill-opacity:1;fill-rule:nonzero;stroke:none;stroke-width:0.25;marker:none;visibility:visible;display:inline;overflow:visible;enable-background:accumulate"
       d="m 206.93921,147.79205 c 0,0 -1.32582,4.08796 -0.66291,4.97185 0.66291,0.88388 1.43631,0.88388 2.54117,1.10485 1.10485,0.22097 3.64602,1.43631 4.41941,1.76777 0.7734,0.33145 1.43631,0.55242 2.43068,0.55242 0.99437,0 0.88389,-1.32582 0.7734,-2.2097 -0.11048,-0.88389 -4.75087,-4.75088 -6.0767,-5.30331 -1.32582,-0.55242 -1.76776,-0.88388 -3.42505,-0.88388 z"
       id="path3887"
       inkscape:connector-curvature="0" />
    <path
       style="color:#000000;fill:#000000;fill-opacity:1;stroke:none;stroke-width:0.25;marker:none;visibility:visible;display:inline;overflow:visible;enable-background:accumulate"
       d="m 217.32484,149.6703 c 0,0 6.73961,0.55243 8.94932,0 2.20971,-0.55242 3.20408,-0.11048 2.87262,1.5468 -0.33145,1.65728 -0.66291,3.20408 -1.87825,3.42505 -1.21534,0.22097 -4.75087,0.55243 -5.96621,0.44194 -1.21534,-0.11049 -3.0936,-0.7734 -3.75651,-1.65728 -0.66291,-0.88388 -1.21534,-1.43631 -1.21534,-2.20971 0,-0.7734 0.33146,-1.43631 0.99437,-1.5468 z"
       id="path3889"
       inkscape:connector-curvature="0" />
  </g>
  <g
     inkscape:groupmode="layer"
     id="layer8"
     inkscape:label="fgwhiteheadress"
     style="display:inline"
     sodipodi:insensitive="true">
    <path
       style="color:#000000;fill:#000000;fill-opacity:1;stroke:none;stroke-width:0.25;marker:none;visibility:visible;display:inline;overflow:visible;enable-background:accumulate"
       d="m 182.93707,98.73977 c 0,0 0.57855,9.69774 3.5473,15.32274 2.96875,5.625 3.82813,5.70312 5.3125,6.48437 1.48438,0.78125 5.78125,2.34375 7.65625,2.96875 1.875,0.625 5.625,2.26563 6.64063,3.51563 1.01562,1.25 1.71875,-1.01562 1.5625,-2.8125 -0.22035,-2.534 -1.5625,-6.71875 -6.79688,-9.53125 -6.25048,-3.35848 -10.16327,-6.24462 -12.89062,-9.14063 -1.4874,-1.57938 -3.7217,-4.24183 -5.03168,-6.80711 z"
       id="path3965"
       inkscape:connector-curvature="0"
       sodipodi:nodetypes="csssssssc" />
    <path
       style="color:#000000;fill:#000000;fill-opacity:1;fill-rule:nonzero;stroke:none;stroke-width:0.25;marker:none;visibility:visible;display:inline;overflow:visible;enable-background:accumulate"
       d="m 191.64062,122.10938 c 0.3125,0.23438 8.67188,3.35938 10.39063,4.14063 1.71875,0.78125 3.59375,1.25 3.75,2.10937 0.15625,0.85938 -0.9375,0.70313 -1.5625,1.25 -0.625,0.54688 -0.78125,1.17188 -0.78125,2.03125 0,0.85938 0.15625,1.40625 0.625,1.5625 0.46875,0.15625 1.64062,0.15625 1.875,0 0.23437,-0.15625 0.46875,2.42188 -0.0781,2.73438 -0.54687,0.3125 -2.26562,-0.625 -5.39062,-2.65625 -3.125,-2.03125 -7.1875,-4.6875 -7.8125,-5.15625 -0.625,-0.46875 -1.32813,-0.9375 -1.17188,-1.48438 0.15625,-0.54687 0.78125,-1.71875 0.625,-2.10937 -0.15625,-0.39063 -0.46875,-1.32813 -0.46875,-2.42188 z"
       id="path4147"
       inkscape:connector-curvature="0" />
    <path
       style="color:#000000;fill:#000000;fill-opacity:1;fill-rule:nonzero;stroke:none;stroke-width:0.25;marker:none;visibility:visible;display:inline;overflow:visible;enable-background:accumulate"
       d="m 188.67187,126.48438 c -0.39062,1.40625 -0.78125,2.1875 -0.39062,2.89063 0.39062,0.70312 3.20312,2.42187 3.75,2.89062 0.54687,0.46875 3.98437,3.04688 4.45312,3.125 0.46875,0.0781 0.85938,1.71875 0.39063,2.10938 -0.46875,0.39062 -1.5625,1.32812 -0.3125,1.64062 1.25,0.3125 3.75,1.09375 4.6875,0.70313 0.9375,-0.39063 2.89062,-0.625 2.96875,-1.32813 0.0781,-0.70312 -0.0781,-1.40625 -0.46875,-1.79687 -0.39063,-0.39063 -3.90625,-2.5 -4.375,-2.89063 -0.46875,-0.39062 -5.625,-3.59375 -5.9375,-3.90625 -0.3125,-0.3125 -3.67188,-2.57812 -3.90625,-2.89062 -0.23438,-0.3125 -0.85938,-0.54688 -0.85938,-0.54688 z"
       id="path4149"
       inkscape:connector-curvature="0" />
    <path
       style="color:#000000;fill:#000000;fill-opacity:1;fill-rule:nonzero;stroke:none;stroke-width:0.25;marker:none;visibility:visible;display:inline;overflow:visible;enable-background:accumulate"
       d="m 207.26562,133.28126 c -0.0781,0.46875 -0.78125,1.79687 -0.15625,2.5 0.625,0.70312 2.96875,1.875 6.25,2.42187 3.28125,0.54688 6.48438,0.9375 7.96875,0.70313 1.48437,-0.23438 2.1875,-0.46875 2.1875,-0.9375 0,-0.46875 0.23437,-1.71875 -0.15625,-1.71875 -0.39063,0 -7.89062,-1.64063 -8.59375,-1.79688 -0.70312,-0.15625 -6.875,-1.32812 -7.5,-1.17187 z"
       id="path4151"
       inkscape:connector-curvature="0" />
    <path
       style="color:#000000;fill:#000000;fill-opacity:1;fill-rule:nonzero;stroke:none;stroke-width:0.25;marker:none;visibility:visible;display:inline;overflow:visible;enable-background:accumulate"
       d="m 206.64062,129.60938 c -0.23437,0.46875 -0.85937,1.40625 -0.625,2.1875 0.23438,0.78125 0.70313,0.54688 1.01563,0.54688 0.3125,0 11.40625,1.09375 13.35937,1.79687 1.95313,0.70313 5.625,2.1875 6.40625,2.8125 0.78125,0.625 3.125,1.01563 4.92187,0.70313 1.79688,-0.3125 3.90625,-2.73438 4.21875,-3.82813 0.3125,-1.09375 0.70313,-3.04687 0.0781,-3.35937 -0.625,-0.3125 -2.26563,-1.01563 -3.04688,-0.3125 -0.78125,0.70312 -1.32812,2.89062 -2.26562,3.125 -0.9375,0.23437 -2.57813,-0.46875 -3.28125,-0.78125 -0.70313,-0.3125 -3.51563,-1.95313 -5.15625,-2.1875 -1.64062,-0.23438 -9.14062,-0.9375 -10.07812,-0.85938 -0.9375,0.0781 -4.60938,-0.39062 -5.54688,0.15625 z"
       id="path4153"
       inkscape:connector-curvature="0" />
    <path
       style="color:#000000;fill:#000000;fill-opacity:1;stroke:none;stroke-width:0.25;marker:none;visibility:visible;display:inline;overflow:visible;enable-background:accumulate"
       d="m 236.64062,128.82813 c 1.40625,1.40625 1.25,3.59375 1.25,3.59375 0,0 0.3125,0.54688 2.10937,0.625 1.79688,0.0781 6.01563,0.23438 6.71875,0 0.70313,-0.23437 6.64063,-1.01562 8.20313,-2.10937 1.5625,-1.09375 5.15625,-3.125 6.17187,-5 1.01563,-1.875 3.98438,-6.79688 4.21875,-8.28125 0.23438,-1.48438 0.78125,-2.73438 0.39063,-2.57813 -0.39063,0.15625 -3.125,2.5 -5.23438,3.04688 -2.10937,0.54687 -10.9375,2.8125 -12.10937,2.8125 -1.17188,0 -4.375,0.62499 -5.54687,1.32812 -1.17188,0.70312 -3.35939,1.32813 -4.21876,2.57813 -0.85938,1.25 -1.875,2.42187 -1.95312,3.98437 z"
       id="path4155"
       inkscape:connector-curvature="0"
       sodipodi:nodetypes="ccccssssssssc" />
    <path
       style="color:#000000;fill:#000000;fill-opacity:1;stroke:none;stroke-width:0.25;marker:none;visibility:visible;display:inline;overflow:visible;enable-background:accumulate"
       d="m 237.49999,133.90626 c -0.78125,1.17187 -1.875,3.35937 -0.54687,4.21874 1.32812,0.85938 4.84375,2.65626 9.92187,2.34376 5.07813,-0.3125 6.875,-0.39063 8.98438,-2.1875 2.10937,-1.79688 2.81249,-6.32813 2.8125,-7.26563 0.23437,-1.5625 -1.01563,0.15625 -1.875,0.625 -0.85938,0.46875 -7.89063,2.57813 -11.09376,2.73438 -2.89666,0.1413 -6.79687,-0.39063 -8.20312,-0.46875 z"
       id="path4157"
       inkscape:connector-curvature="0"
       sodipodi:nodetypes="cssscssc" />
    <path
       style="color:#000000;fill:#000000;fill-opacity:1;stroke:none;stroke-width:0.25;marker:none;visibility:visible;display:inline;overflow:visible;enable-background:accumulate"
       d="m 236.40624,138.98438 c -0.625,1.5625 -0.78125,2.89063 0.15625,3.90625 0.9375,1.01563 3.98438,2.89063 6.48438,2.89063 2.5,0 5.54687,0.0781 7.03125,-0.46875 1.48437,-0.54688 4.21875,-1.01563 5.15625,-2.65625 0.9375,-1.64063 0.85937,-3.51563 0.85937,-3.51563 0,0 -2.96874,1.875 -4.60937,2.10938 -1.64062,0.23437 -8.35938,0.3125 -10.23438,-0.23437 -1.44265,-0.42077 -4.84375,-2.03126 -4.84375,-2.03126 z"
       id="path4159"
       inkscape:connector-curvature="0"
       sodipodi:nodetypes="csscscssc" />
    <path
       style="color:#000000;fill:#000000;fill-opacity:1;fill-rule:nonzero;stroke:none;stroke-width:0.25;marker:none;visibility:visible;display:inline;overflow:visible;enable-background:accumulate"
       d="m 209.29687,119.37501 c -0.39062,0.85937 -0.46875,2.26562 0.15625,3.20312 0.625,0.9375 6.25,-2.10937 6.5625,-2.65625 0.3125,-0.54687 0.9375,-2.73437 0.78125,-3.75 -0.15625,-1.01562 -6.48437,2.34375 -7.5,3.20313 z"
       id="path4161"
       inkscape:connector-curvature="0" />
    <path
       style="color:#000000;fill:#000000;fill-opacity:1;fill-rule:nonzero;stroke:none;stroke-width:0.25;marker:none;visibility:visible;display:inline;overflow:visible;enable-background:accumulate"
       d="m 229.76562,118.04688 c 0,0 -1.40625,3.04688 -1.17188,3.67188 0.23438,0.625 0.78125,1.25 1.48438,1.40625 0.70312,0.15625 3.04687,1.32812 3.59375,1.95312 0.54687,0.625 1.79687,1.64063 2.26562,0.23438 0.46875,-1.40625 1.48438,-3.82813 0.9375,-4.0625 -0.54687,-0.23438 -6.79687,-4.6875 -7.10937,-3.20313 z"
       id="path4163"
       inkscape:connector-curvature="0" />
    <path
       style="color:#000000;fill:#000000;fill-opacity:1;fill-rule:nonzero;stroke:none;stroke-width:0.25;marker:none;visibility:visible;display:inline;overflow:visible;enable-background:accumulate"
       d="m 218.28125,116.95313 c 0.3125,3.20313 0.46875,4.53125 2.1875,5.39063 1.71875,0.85937 4.53124,1.17187 5.46874,-0.3125 0.9375,-1.48438 1.71875,-3.51563 1.71875,-4.45313 0,-0.9375 -0.3125,-5.07812 -4.375,-5.39062 -4.06249,-0.3125 -4.92187,2.26562 -4.99999,4.76562 z"
       id="path4165"
       inkscape:connector-curvature="0" />
    <path
       style="color:#000000;fill:#000000;fill-opacity:1;stroke:none;stroke-width:0.25;marker:none;visibility:visible;display:inline;overflow:visible;enable-background:accumulate"
       d="m 218.28125,111.87501 c 1.40625,-0.15625 4.33261,-2.99303 8.98437,0.625 0.70312,0.54687 2.42187,-3.67188 2.1875,-4.60938 -0.38132,-1.5253 -2.57813,-4.53125 -3.28125,-4.60937 -0.70313,-0.0781 -4.6875,0.15625 -5.39062,0 -0.70313,-0.15625 -2.96875,3.28124 -2.96875,4.37499 0,1.09375 0.15625,2.89063 0.46875,4.21876 z"
       id="path4167"
       inkscape:connector-curvature="0"
       sodipodi:nodetypes="csscssc" />
    <path
       style="color:#000000;fill:#000000;fill-opacity:1;stroke:none;stroke-width:0.25;marker:none;visibility:visible;display:inline;overflow:visible;enable-background:accumulate"
       d="m 238.12499,120.31251 c -1.875,-1.09375 -8.04687,-4.29688 -9.14062,-4.60938 -1.09375,-0.3125 0.15627,-3.51562 0.93749,-4.37499 0.78125,-0.85938 4.63738,-5.29062 6.17189,-7.42188 2.81249,-3.90625 3.41346,-11.195006 3.12499,-15.468752 -0.19295,-2.85867 5.58648,1.559439 6.40625,12.421872 0.13439,1.7808 2.09163,1.40133 2.73438,0.85938 1.2824,-1.08128 3.28125,-2.500003 3.28125,-2.500003 0,0 1.01562,3.125003 -0.0781,5.390623 -1.09375,2.26563 -1.57858,5.5576 -6.09375,8.82813 -2.7375,1.98289 -6.95312,5.9375 -7.34375,6.875 z"
       id="path4169"
       inkscape:connector-curvature="0"
       sodipodi:nodetypes="csssssscsscc" />
    <path
       style="color:#000000;fill:#000000;fill-opacity:1;stroke:none;stroke-width:0.25;marker:none;visibility:visible;display:inline;overflow:visible;enable-background:accumulate"
       d="m 195.3125,93.125007 c -0.46875,2.421875 -0.23438,9.531253 2.5,12.421873 2.73437,2.89063 3.75073,4.10678 5.625,6.32813 2.10937,2.5 4.21875,6.01562 4.21875,6.01562 0,0 9.76562,-3.35937 9.76562,-4.0625 0,-0.70312 0.39063,-2.1875 -1.48437,-4.45312 -1.875,-2.26563 -5.23438,-8.04688 -5.70313,-9.29688 -0.46875,-1.249998 -1.64062,-6.093747 -1.17187,-12.187497 0.14027,-1.823472 1.09375,-3.359375 0.46875,-3.515625 -0.625,-0.15625 -2.8125,-0.703125 -4.84375,3.28125 -2.03125,3.984374 -2.72692,7.631358 -3.20313,9.218749 -0.23437,0.78125 -2.57812,0.3125 -3.04687,-0.15625 -0.46875,-0.46875 -1.71876,-2.03125 -3.125,-3.59375 z"
       id="path4171"
       inkscape:connector-curvature="0"
       sodipodi:nodetypes="csscssssssssc" />
  </g>
  <g
     inkscape:groupmode="layer"
     id="layer9"
     inkscape:label="fgblackswords"
     style="display:inline"
     sodipodi:insensitive="true">
    <path
       style="color:#000000;fill:#ffffff;fill-opacity:1;stroke:none;stroke-width:0.25;marker:none;visibility:visible;display:inline;overflow:visible;enable-background:accumulate"
       d="m 83.968928,128.01516 c 33.035142,24.08582 67.836472,43.54311 99.793582,60.42568 31.95712,16.88257 60.40711,32.73723 66.59747,33.92888 0,0 1.91025,-4.28059 3.75651,-5.96621 2.53948,-2.31853 11.26951,0.66291 11.93243,11.49048 10.85185,2.53251 24.74873,8.83883 29.61009,10.6066 4.86136,1.76777 7.02861,4.24215 8.72836,3.7565 3.09358,-0.88388 7.29203,0.66292 7.95494,1.98874 0.66292,1.32583 2.45474,1.9818 5.96622,2.76214 2.98311,0.66292 4.41941,1.21534 3.53553,5.41379 -0.88388,4.19844 -2.65165,5.19281 -4.41942,5.63475 -1.76776,0.44194 -1.76776,0.11049 -3.09359,1.76777 -1.18746,1.48433 -2.87261,0.22097 -6.62912,0.22097 -2.17631,10e-6 -2.06131,-2.347 -2.06131,-2.347 0,0 -3.76532,-2.32349 -4.59788,-2.02665 -1.31472,0.46875 -7.64136,1.33638 -10.68492,-2.84601 -2.73106,-0.90115 -4.12419,1.11059 -8.01771,-2.98995 -2.40116,-0.20012 -5.25551,3.00706 -8.23679,-2.85861 -5.17618,-2.966 -9.47529,-4.55421 -11.8109,-6.04576 -3.20409,4.86136 -3.64603,3.75651 -8.94933,3.53554 -5.3033,-0.22097 -8.11085,-4.71834 -5.63475,-10.82757 -4.82935,-3.40268 -21.48806,-11.13216 -28.94719,-15.02602 C 118.44039,166.24312 85.515724,146.13477 83.968928,128.01516 z"
       id="path4177"
       inkscape:connector-curvature="0"
       sodipodi:nodetypes="cssscsssssssscsccccscsc" />
    <path
       style="color:#000000;fill:#ffffff;fill-opacity:1;stroke:none;stroke-width:0.25;marker:none;visibility:visible;display:inline;overflow:visible;enable-background:accumulate"
       d="m 263.43749,19.68751 c -14.6875,-1.25 -32.1875,-1.875 -60.62499,14.062499 -28.4375,15.9375 -41.40625,27.8125 -50.15625,36.718749 -2.65625,-2.96875 -6.67425,-1.620783 -9.21875,1.71875 -3.00046,3.93796 -4.6875,12.03125 -3.4375,14.84375 -1.17187,0.859375 -2.83315,4.318476 -5.50781,4.619141 -4.16992,0.46875 -4.84375,1.865235 -6.40625,5.810547 -1.40487,3.547284 -1.67969,1.601564 -3.86719,4.101564 -3.16203,-0.05 -3.28949,2.65785 -3.28949,2.65785 0,0 -2.25739,-0.9391 -3.11676,4.3734 -3.86693,1.84469 -2.1875,6.5625 -2.1875,6.5625 0,0 -3.05462,9.64235 -1.875,10.46875 2.27846,1.59621 9.00385,5.37303 11.25,4.0625 1.50304,-0.87696 0.9461,-1.82696 1.71875,-4.53125 0.9375,-3.28125 2.96875,-5.15625 3.28125,-9.21875 0.0959,-1.24632 0.33152,-1.34527 1.5625,-1.5625 2.65625,-0.46875 6.5625,-5.3125 6.5625,-7.65625 0,-1.25 1.82561,-3.11018 3.4375,-3.59375 4.6875,-1.40625 3.4375,-7.500002 4.6875,-6.562502 1.25,0.9375 5.76054,4.276442 8.4375,2.03125 4.84375,-4.0625 5.625,-11.71875 4.84375,-16.09375 -0.45052,-6.054174 64.06249,-56.562499 103.90624,-62.812498 z"
       id="path4179"
       inkscape:connector-curvature="0"
       sodipodi:nodetypes="cscscssccccssssssssscc" />
  </g>
  <g
     inkscape:groupmode="layer"
     id="layer10"
     inkscape:label="fgwhiteswords"
     style="display:inline"
     sodipodi:insensitive="true">
    <path
       style="color:#000000;fill:#000000;fill-opacity:1;stroke:none;stroke-width:0.25;marker:none;visibility:visible;display:inline;overflow:visible;enable-background:accumulate"
       d="m 318.25329,250.87496 c -0.11049,1.82301 -0.49719,3.64601 0.11048,4.03272 0.7734,0.33141 1.27058,0.66291 2.15447,-1.93349 0.82911,-2.43555 0.7734,-3.867 -0.55243,-4.2537 -0.60767,-0.11048 -1.32583,-0.60766 -1.71252,2.15447 z"
       id="path4182"
       inkscape:connector-curvature="0"
       sodipodi:nodetypes="ccscc" />
    <path
       style="color:#000000;fill:#000000;fill-opacity:1;stroke:none;stroke-width:0.25;marker:none;visibility:visible;display:inline;overflow:visible;enable-background:accumulate"
       d="m 307.42572,248.27855 c -0.44195,1.82301 0.30523,2.16099 0.49718,3.81175 0.27621,2.37543 0.3867,4.03272 0.16573,4.75087 -0.22097,0.71816 -0.49719,0.11049 -0.49719,1.04961 0,0.93913 -0.49718,1.04962 1.1601,1.10486 1.65728,0.0552 2.32019,0.55243 3.42505,0.33145 1.10485,-0.22097 1.1601,-0.11048 1.54679,-1.38106 0.3867,-1.27059 -0.27621,-1.27058 -0.3867,-1.82301 -0.11048,-0.55243 -0.49718,-6.90534 -0.60766,-7.67874 -0.11049,-0.7734 -0.24498,-2.26159 -1.32583,-3.25932 -0.71816,-0.66292 -3.7565,-1.38107 -3.97747,3.09359 z"
       id="path4184"
       inkscape:connector-curvature="0"
       sodipodi:nodetypes="cssscssccsc" />
    <path
       style="color:#000000;fill:#000000;fill-opacity:1;stroke:none;stroke-width:0.25;marker:none;visibility:visible;display:inline;overflow:visible;enable-background:accumulate"
       d="m 309.083,243.91438 c -0.66292,0.3867 -1.71253,1.43631 -1.9335,2.26495 -0.22097,0.82864 -0.54968,1.75106 -0.49719,3.86699 0.0536,2.16136 -2.70689,3.25932 -5.08232,4.08796 -2.37544,0.82864 -3.0936,1.27058 -4.08796,1.27058 -0.99437,0 -3.59078,-0.33145 -5.02709,-1.43631 -1.43631,-1.10485 -0.16569,-1.823 1.32582,-2.15446 1.49155,-0.33146 5.69,-1.49156 6.51865,-1.71253 0.82864,-0.22097 3.3698,-1.32583 3.86699,-2.04398 0.49718,-0.71816 0.93912,-2.37544 1.0496,-2.98311 0.11049,-0.60767 -0.27621,-1.71252 0.38671,-1.98873 0.66291,-0.27622 1.15432,-0.65215 2.48591,-0.33146 1.07549,0.25902 1.9335,0.66291 0.99438,1.1601 z"
       id="path4186"
       inkscape:connector-curvature="0"
       sodipodi:nodetypes="cssssssscccsc" />
    <path
       style="color:#000000;fill:#000000;fill-opacity:1;stroke:none;stroke-width:0.25;marker:none;visibility:visible;display:inline;overflow:visible;enable-background:accumulate"
       d="m 304.49785,243.19622 c -0.3867,1.9335 0,2.98311 -0.82864,3.92223 -0.82864,0.93913 -1.65728,1.5468 -3.7565,2.15447 -2.09923,0.60767 -5.85574,1.76776 -7.56826,2.15447 -0.22097,-0.55243 -0.71815,-1.65729 -0.0552,-2.15447 0.66291,-0.49718 5.96621,-4.36417 7.56825,-5.08233 1.60204,-0.71815 2.65165,-1.76777 4.64039,-0.99437 z"
       id="path4188"
       inkscape:connector-curvature="0"
       sodipodi:nodetypes="cssccscc" />
    <path
       style="color:#000000;fill:#000000;fill-opacity:1;stroke:none;stroke-width:0.25;marker:none;visibility:visible;display:inline;overflow:visible;enable-background:accumulate"
       d="m 301.56999,242.42282 c -2.65166,-1.5468 -5.49249,-2.94804 -7.56826,-3.53553 -2.92786,-0.82864 -4.6367,-0.66659 -7.07106,1.21534 -0.86533,0.66896 -0.3867,2.81738 -0.27622,4.80612 0.49719,0.11048 4.69563,-1.27059 5.96622,-1.1601 1.27058,0.11048 3.59077,1.43631 3.81174,1.76777 1.04385,-0.63419 1.11786,-0.93184 1.76777,-1.27059 2.09923,-1.10485 2.59641,-1.32582 3.36981,-1.82301 z"
       id="path4192"
       inkscape:connector-curvature="0"
       sodipodi:nodetypes="csscsccc" />
    <path
       style="color:#000000;fill:#000000;fill-opacity:1;stroke:none;stroke-width:0.25;marker:none;visibility:visible;display:inline;overflow:visible;enable-background:accumulate"
       d="m 281.13018,238.00341 c -0.0552,2.26495 -0.11048,5.74524 0.93913,8.2864 1.04961,2.54117 2.32019,4.52991 4.58514,5.19282 2.26495,0.66291 3.20408,0.33146 3.48029,-0.0552 0.27622,-0.3867 1.71253,-1.1601 0.82865,-1.60204 -0.88389,-0.44194 -3.70127,-2.09923 -4.47466,-3.25932 -0.7734,-1.1601 -1.27059,-4.9166 -0.82865,-7.01583 0.44195,-2.09922 0.82865,-2.92786 0.27622,-3.20408 -0.55243,-0.27621 -2.54117,-2.37543 -4.75088,-2.65165 -2.2097,-0.27621 -4.5299,1.71253 -5.57951,2.15447 -1.04961,0.44194 -9.55699,1.98874 -9.94369,1.9335 -0.3867,-0.0553 -2.59641,0.60767 -1.76777,2.15446 0.82865,1.5468 1.49156,0.93913 1.98874,1.27058 0.49719,0.33146 0.71816,1.87826 1.60204,1.43631 0.88388,-0.44194 0.93913,-1.32582 1.71253,-1.54679 0.77339,-0.22097 5.63475,-1.04961 7.12631,-1.32583 1.49155,-0.27621 2.9831,-0.16573 3.7565,-0.82864 0.7734,-0.66291 1.04961,-0.93912 1.04961,-0.93912 z"
       id="path4194"
       inkscape:connector-curvature="0" />
    <path
       style="color:#000000;fill:#000000;fill-opacity:1;stroke:none;stroke-width:0.25;marker:none;visibility:visible;display:inline;overflow:visible;enable-background:accumulate"
       d="m 280.57776,243.08574 c -0.22097,1.71252 0.68473,2.69423 0.82864,3.81174 0.0999,0.77559 -1.27059,0.99437 -1.71253,1.60204 -0.44194,0.60767 -0.82864,1.43631 -1.38107,1.1601 -0.55242,-0.27621 -2.20971,-0.99437 -2.48592,-1.38107 -0.27621,-0.3867 -0.93912,-1.43631 -0.27621,-2.04398 0.66291,-0.60767 2.09922,-2.09922 2.87262,-2.43068 0.7734,-0.33145 1.49155,-1.10485 2.15447,-0.71815 z"
       id="path4196"
       inkscape:connector-curvature="0"
       sodipodi:nodetypes="cssssscc" />
    <path
       style="color:#000000;fill:#000000;fill-opacity:1;stroke:none;stroke-width:0.25;marker:none;visibility:visible;display:inline;overflow:visible;enable-background:accumulate"
       d="m 275.21921,240.7103 c -2.54117,0.55243 -2.98311,0.33142 -3.7565,0.71816 -0.33146,0.3867 -1.21534,1.04961 -0.60767,2.32019 0.60767,1.27058 1.0496,1.10486 1.98874,1.27058 0.62027,0.10947 0.33145,0.7734 0.99436,0.88388 0.66292,0.11049 1.1601,0.22098 2.15447,-0.77339 0.99437,-0.99437 1.10485,-1.21534 1.04961,-1.65728 -0.0552,-0.44195 -0.66291,-1.71253 -0.99436,-2.04399 -0.33146,-0.33145 -0.49719,-0.60767 -0.82865,-0.71815 z"
       id="path4200"
       inkscape:connector-curvature="0"
       sodipodi:nodetypes="ccsscsccc" />
    <path
       style="color:#000000;fill:#000000;fill-opacity:1;stroke:none;stroke-width:0.25;marker:none;visibility:visible;display:inline;overflow:visible;enable-background:accumulate"
       d="m 266.71183,229.49603 c 2.04398,0.0552 4.47466,1.04961 5.3033,1.27058 0.82864,0.22097 4.41942,0.93913 4.64039,2.32019 0.22097,1.38107 -0.44194,1.9335 -0.82864,1.98874 -0.3867,0.0552 -2.54116,1.04961 -3.97747,0.44194 -1.43631,-0.60767 0.88388,-0.66291 -1.82301,-2.15446 -2.7069,-1.49156 -4.75088,-2.59641 -3.31457,-3.86699 z"
       id="path4202"
       inkscape:connector-curvature="0" />
    <path
       style="color:#000000;fill:#000000;fill-opacity:1;stroke:none;stroke-width:0.25;marker:none;visibility:visible;display:inline;overflow:visible;enable-background:accumulate"
       d="m 252.84591,224.63467 c -0.0553,-1.54679 0.33146,-4.64039 0.93913,-5.85573 0.60767,-1.21534 2.32019,-2.87262 6.02145,-0.16573 3.70127,2.7069 3.48029,8.67311 3.25932,10.27515 -0.22097,1.60204 -2.65165,11.43524 -3.03835,12.48485 -0.38669,1.04961 -0.77339,2.43068 -3.53553,2.26495 -2.76214,-0.16572 -5.57951,-0.11048 -7.01582,-2.09922 -1.43631,-1.98874 -1.65729,-2.70689 -0.99437,-4.86136 0.66291,-2.15446 1.65728,-2.76213 1.65728,-2.76213 0,0 2.81738,1.54679 4.03272,1.71252 2.54116,-0.27622 2.92787,-1.71252 3.36981,-2.65166 1.45228,-3.08612 0.11048,-5.5795 -0.49719,-5.9662 -0.60767,-0.3867 -4.19845,-2.37544 -4.19845,-2.37544 z"
       id="path4204"
       inkscape:connector-curvature="0"
       sodipodi:nodetypes="csssssssccssc" />
    <path
       style="color:#000000;fill:#000000;fill-opacity:1;stroke:none;stroke-width:0.25;marker:none;visibility:visible;display:inline;overflow:visible;enable-background:accumulate"
       d="m 255.33183,234.57836 c 0.71816,-0.44194 2.87262,-3.81175 1.76777,-5.74524 -1.10485,-1.9335 -8.26288,-5.11817 -9.11505,-5.52428 -14.14213,-6.73961 -69.1012,-35.44811 -81.15155,-42.26067 -28.08241,-15.87614 -60.98796,-34.69243 -80.654363,-49.93942 -0.883883,-0.22097 9.830587,16.67056 39.774753,34.47146 47.95068,28.50523 91.51877,50.36294 100.98368,55.02174 9.46492,4.65881 22.86427,12.19023 28.39476,13.97641 z"
       id="path4206"
       inkscape:connector-curvature="0"
       sodipodi:nodetypes="cssscssc" />
    <path
       style="color:#000000;fill:#000000;fill-opacity:1;stroke:none;stroke-width:0.25;marker:none;visibility:visible;display:inline;overflow:visible;enable-background:accumulate"
       d="m 153.35378,75.203122 c 2.20971,-3.093592 15.68893,-18.119611 31.8198,-28.063299 16.13088,-9.943689 29.79665,-19.079105 47.72971,-23.643883 12.15339,-3.093592 17.18487,-2.736122 18.34058,-2.541165 -8.34603,2.957093 -32.99541,11.137697 -66.73319,36.570678 -32.1494,24.235589 -24.96972,24.748737 -26.51651,24.306795 -1.5468,-0.441941 -4.86136,-0.883883 -4.64039,-6.629126 z"
       id="path4208"
       inkscape:connector-curvature="0"
       sodipodi:nodetypes="csscssc" />
    <path
       style="color:#000000;fill:#000000;fill-opacity:1;stroke:none;stroke-width:0.25;marker:none;visibility:visible;display:inline;overflow:visible;enable-background:accumulate"
       d="m 151.80698,71.336132 c 0,0 -2.54116,3.535534 -2.54116,5.08233 0,1.546796 1.65728,5.08233 2.87262,5.966214 1.21534,0.883883 1.98874,2.209708 3.20408,1.878251 1.21534,-0.331456 2.87262,-1.104853 2.87262,-1.104853 0,0 0.55243,4.640388 -0.22097,6.408154 -0.50598,6.406403 -8.26788,2.582474 -9.39127,1.436311 -4.46791,-4.558494 -4.19844,-6.629126 -4.5299,-9.943689 -0.33146,-3.314563 0.3689,-6.518789 0.99437,-8.507378 0.27983,-0.889664 4.19845,-4.087961 6.73961,-1.21534 z"
       id="path4210"
       inkscape:connector-curvature="0"
       sodipodi:nodetypes="csssccsssc" />
    <path
       style="color:#000000;fill:#000000;fill-opacity:1;stroke:none;stroke-width:0.25;marker:none;visibility:visible;display:inline;overflow:visible;enable-background:accumulate"
       d="m 142.85766,79.070112 c 0,1.767767 -0.55242,6.187184 2.20971,9.722718 2.76214,3.535534 4.30893,4.640388 6.40816,5.08233 2.09922,0.441942 3.42505,0.883883 4.64038,0.331457 0.58649,-0.266589 -0.49053,2.178754 -2.09922,2.983106 -0.88388,0.441941 -1.76776,1.878252 -6.62912,-1.546796 -5.56257,-3.919083 -7.07107,-11.269514 -4.52991,-16.572815 z"
       id="path4212"
       inkscape:connector-curvature="0"
       sodipodi:nodetypes="csssssc" />
    <path
       style="color:#000000;fill:#000000;fill-opacity:1;stroke:none;stroke-width:0.25;marker:none;visibility:visible;display:inline;overflow:visible;enable-background:accumulate"
       d="m 114.68388,124.92157 c 2.32019,1.21534 8.39689,4.86136 9.72272,3.53553 1.32582,-1.32582 0.55242,-3.09359 0.77339,-3.53553 0.22098,-0.44195 0.66292,-1.76777 -4.64038,-2.65165 -5.3033,-0.88389 -5.63476,-2.09923 -6.18719,0.11048 -0.55242,2.20971 -0.22097,1.98874 0.33146,2.54117 z"
       id="path4214"
       inkscape:connector-curvature="0" />
    <path
       style="color:#000000;fill:#000000;fill-opacity:1;stroke:none;stroke-width:0.25;marker:none;visibility:visible;display:inline;overflow:visible;enable-background:accumulate"
       d="m 116.34116,113.87302 c 0.88388,0.11049 4.08796,1.10486 5.96621,3.97748 1.87826,2.87262 1.98874,4.08796 2.98311,4.19845 0.99437,0.11048 1.87825,0 2.87262,-3.31457 0.99437,-3.31456 -3.31456,-5.74524 -4.41942,-6.29767 -1.10485,-0.55242 -4.08796,-3.20407 -4.97184,-2.76213 -0.88388,0.44194 -2.87262,0.77339 -2.43068,4.19844 z"
       id="path4216"
       inkscape:connector-curvature="0" />
    <path
       style="color:#000000;fill:#000000;fill-opacity:1;stroke:none;stroke-width:0.25;marker:none;visibility:visible;display:inline;overflow:visible;enable-background:accumulate"
       d="m 119.43475,108.34875 c 1.76777,0.66291 2.43068,1.10486 3.31457,1.76777 0.88388,0.66291 2.43067,0.55243 1.76776,-0.88388 -0.66291,-1.43632 -2.87262,-2.98311 -3.31456,-2.98311 -0.44194,0 -1.76777,-1.10486 -1.76777,2.09922 z"
       id="path4218"
       inkscape:connector-curvature="0" />
    <path
       style="color:#000000;fill:#000000;fill-opacity:1;stroke:none;stroke-width:0.25;marker:none;visibility:visible;display:inline;overflow:visible;enable-background:accumulate"
       d="m 122.0864,105.36565 c 0,0 2.76214,1.65728 3.75651,3.20407 0.99437,1.5468 2.87262,2.76214 3.86699,3.42505 0.99437,0.66291 1.87825,2.54117 4.19844,-0.11048 2.3202,-2.65165 -0.99437,-4.97185 -3.31456,-6.51864 -2.32019,-1.5468 -6.40815,-3.31457 -7.40252,-2.87263 -0.99437,0.44195 -1.98874,1.65729 -1.10486,2.87263 z"
       id="path4220"
       inkscape:connector-curvature="0" />
    <path
       style="color:#000000;fill:#000000;fill-opacity:1;stroke:none;stroke-width:0.25;marker:none;visibility:visible;display:inline;overflow:visible;enable-background:accumulate"
       d="m 133.4664,93.212248 c -0.66291,0.22097 -2.65165,-0.331457 -4.08796,3.646019 -1.43631,3.977473 4.41942,9.170293 4.64039,9.722713 0.22097,0.55243 1.10485,1.32583 1.43631,2.43068 0.33146,1.10486 1.32582,-0.22097 1.32582,-0.77339 0,-0.55243 1.21534,-1.32583 -0.55242,-4.64039 -1.76777,-3.31456 -2.09923,-5.85573 -2.76214,-10.385632 z"
       id="path4222"
       inkscape:connector-curvature="0" />
    <path
       style="color:#000000;fill:#000000;fill-opacity:1;stroke:none;stroke-width:0.25;marker:none;visibility:visible;display:inline;overflow:visible;enable-background:accumulate"
       d="m 136.22854,99.841373 c -0.44194,-1.43631 -1.65728,-4.087961 -1.32583,-4.529902 0.33146,-0.441942 -0.35449,-2.490023 5.19282,0 0.99273,0.445608 2.98473,0.644107 3.53553,1.325825 0.71786,0.888493 1.43632,2.762141 -0.66291,4.861354 -1.51692,1.51691 -1.87825,0.66292 -3.64602,-0.11048 -1.76777,-0.7734 -2.65165,-1.546797 -3.09359,-1.546797 z"
       id="path4224"
       inkscape:connector-curvature="0"
       sodipodi:nodetypes="ccssssc" />
  </g>
</svg>
